<?xml version="1.0" encoding="utf-8"?>
<!-- Generator: Adobe Illustrator 25.2.0, SVG Export Plug-In . SVG Version: 6.00 Build 0)  -->
<svg version="1.1" xmlns="http://www.w3.org/2000/svg" xmlns:xlink="http://www.w3.org/1999/xlink" x="0px" y="0px" width="399px"
	 height="400.3px" viewBox="0 0 399 400.3" style="enable-background:new 0 0 399 400.3;" xml:space="preserve">
<style type="text/css">
	.st0{display:none;}
	.st1{display:inline;}
	.st2{fill:#3F93CF;}
</style>
<g id="Layer_1" class="st0">
	<g class="st1">
		<path class="st2" d="M7.5,285.6c0-43,0-86,0-129c4.1,0,8.3,0.2,12.4-0.1c5.7-0.4,10.8,1,15.5,4.2c4.3,2.9,9.5,4.8,13.5,8.1
			c7.1,5.8,14.5,5.5,22.4,2.4c1.2-0.5,3.2-1.3,3.2-2c0-1.2-1-2.7-2-3.5c-10.2-9.2-15.9-20.4-15.5-34.3c0.1-4.2,0-8.5,0-12.7
			C57,96.8,74,78.4,95.8,76.3c1.8-0.2,3.6-0.7,5.8-1.1c-1.8-4.3-3.3-8.1-5-11.8c-0.9-2.1-0.8-3.7,0.9-5.4c9.5-9.4,19-18.9,28.4-28.4
			c1.9-1.9,3.5-1.9,5.6-0.5c4.3,2.9,8.8,5.7,13.1,8.7c2.4,1.6,4.4,1.6,6.9,0.4c5.2-2.4,10.5-4.7,15.9-6.7c2.4-0.9,3.7-2.2,4.2-4.7
			c1.2-6.2,2.6-12.5,3.9-18.7c16,0,32,0,48,0c1.3,6.4,2.5,12.7,4.2,19c0.4,1.6,2.1,3.3,3.7,4.1c5.4,2.6,11.1,4.6,16.5,7.1
			c2.5,1.1,4.4,1,6.6-0.5c4.2-2.9,8.7-5.5,12.8-8.4c2.6-1.8,4.3-1.5,6.4,0.7c9,9.2,18.1,18.3,27.3,27.3c2.1,2.1,2.5,3.9,1.2,6.6
			c-1.7,3.5-3.1,7.2-4.8,11.2c2.3,0.4,3.8,0.8,5.4,1C323,79,337.9,92.9,341.3,113c1,6,0.5,12.2,0.7,18.3
			c0.4,13.9-5.3,25.1-15.4,34.3c-1,0.9-1.5,2.3-2.3,3.5c1.2,0.7,2.4,1.8,3.7,2.1c7.9,2.2,16.1,3.8,23.8,6.5
			c3.8,1.3,6.8,1.4,10.1-0.7c9-5.6,18.3-10.3,29.5-8.4c0,30.5,0,61,0,91.5c-35.2,17.6-70.3,35.2-105.5,52.7c-3.4,1.7-5.4,3.6-6,7.6
			c-1.2,8-6.1,13.3-13.9,15.4c-2.9,0.8-4.3,2.2-5,5.1c-2,7.2-6.7,11.9-14,13.6c-2.6,0.6-3.7,1.8-4.4,4.3c-2,7.8-7,12.7-14.9,14.6
			c-1.2,0.3-3,1.5-3.1,2.5c-1.5,8.1-6.8,12.8-13.8,16.1c-3.8,0-7.5,0-11.2,0c-3.7-2.3-7.2-4.8-11-7c-1.3-0.7-3.3-1.3-4.6-0.8
			c-12.8,4.7-23.7-0.6-27.5-13.7c-0.7-2.3-1.9-3.2-4-3.7c-7.6-2-12.5-7-14.5-14.6c-0.6-2.1-1.5-3.3-3.8-3.9
			c-7.6-1.7-12.5-6.6-14.5-14.1c-0.7-2.6-2-3.9-4.6-4.7c-7.9-2.3-12.8-7.4-14.4-15.6c-0.2-1-0.6-2.4-1.4-2.9
			c-5.4-3.5-10.9-6.8-15.6-9.6c-2.4,1.8-4.1,4-5.7,4.1c-4.5,0.1-9.3-0.1-13.6-1.4C45.1,298.3,26.3,291.9,7.5,285.6z M378.7,183.2
			c-2,0.9-3.2,1.3-4.2,1.9c-17.6,9.3-35.1,18.5-52.7,27.8c-16.7,8.8-33.5,17.4-49.9,26.6c-7.7,4.3-15.3,5.3-23.7,2.8
			c-11.2-3.4-22.5-6.6-33.9-9.7c-5.9-1.6-11.9-1.5-17.5,1.3c-11.7,5.7-23.3,11.6-34.9,17.4c-4.9,2.5-6.8,8.1-4.3,12.6
			c2.2,4,7.3,5,12.1,2.1c7-4.1,14-8.3,20.9-12.5c10.2-6.1,22.1-5.4,31,2.3c8.5,7.4,16.7,15,25,22.6c8.1,7.4,16.4,14.7,24.4,22.1
			c2.8,2.6,5.2,2.7,8.6,0.9c31.3-15.8,62.7-31.5,94.2-47.1c3.5-1.7,4.9-3.8,4.9-7.7c-0.2-19.5-0.1-39-0.1-58.5
			C378.7,186.8,378.7,185.5,378.7,183.2z M183.7,225.6c0-0.4,0-0.8-0.1-1.2c-10.1-3.7-20.4-6.8-31.2-5c-12.8,2.1-25.4,5.7-38.2,7.6
			c-8.9,1.3-13.5,4.9-15.5,14.1c-3.1,14.5-7.9,28.7-12.1,42.9c-0.8,2.8-0.2,4.4,2.4,5.7c3.5,1.8,6.9,4.1,10.3,6.1
			c4.8,2.9,4.8,2.8,8.8-1.1c3.8-3.8,7.3-8,11.6-11.1c10.9-7.8,25.7-2,29.7,11.1c0.6,2,0.9,3.9,3.6,4.6c8.2,1.9,13.2,7.1,15.4,15.2
			c0.3,1.3,1.8,2.8,3,3.1c8.3,2.1,13.3,7.3,15.6,15.5c0.3,1.3,1.9,2.9,3.1,3.1c5.8,1.2,9.4,5.2,13.3,9.2c4.9,5,10.3,9.4,15.8,13.7
			c3.1,2.4,7.6,1.6,9.6-0.9c2.1-2.8,1.6-5.5-1.7-8.9c-0.6-0.6-1.2-1.3-1.9-1.8c-8.1-6.8-16.2-13.7-24.4-20.4
			c-5.5-4.5-5.6-4.5-0.9-10.3c3.7-4.6,3.7-4.6,8.1-0.9c9.5,8,18.9,15.9,28.4,23.8c3.3,2.8,8.7,2.7,10.9,0c2.5-3,1.9-6.4-2.1-9.7
			c-8-6.7-16.2-13.3-24.2-20.1c-8.3-7.2-8.4-4.3-1.5-13.1c1.9-2.4,3.4-2.5,5.8-0.5c9.6,8.2,19.3,16.3,29.1,24.2
			c4.5,3.7,8.6,3.8,11.4,0.6c2.5-2.9,1.5-7.2-2.8-11c-16.5-14.7-32.9-29.5-49.4-44.2c-5.1-4.6-10.1-4.9-16.1-1.4
			c-7.6,4.5-15.1,9.3-23,13.4c-10.7,5.7-23.3,1.7-28.6-8.7c-5.5-10.7-1.6-23.8,8.9-29.4c4.4-2.4,8.9-4.5,13.4-6.7
			C173.3,230.8,178.5,228.2,183.7,225.6z M230.5,126.3c-0.4-4-0.4-8-1.2-11.9c-3.3-15.8-16-25.5-32.1-25.2
			c-11.8,0.2-26.5,11.3-28.1,26.7c-0.5,5-0.3,10-0.3,15c0.1,9.3,2.5,18.5,10.4,23.4c8.5,5.3,9,12.1,8.3,20.3c0,0.4-0.1,0.8,0,1.1
			c0.5,3.8-1.3,5.3-4.8,6.1c-10,2.3-19.9,4.9-29.8,7.4c-7.6,1.9-12.5,6.5-14.5,14.1c-1.1,4.1-0.1,5.1,4,4.3
			c12.2-2.4,24.3-1.9,36.3,1.4c16.3,4.6,32.7,9.1,49,13.7c9,2.5,18,5.2,27,7.7c4.8,1.3,6.2,0.3,6.2-4.7c0-5.6,0-11.2,0-16.9
			c0-10.7-4.9-17.1-15.3-19.8c-7.9-2-15.8-3.9-23.6-5.9c-12.5-3.3-10.1-0.6-10.7-13.5c-0.3-6,0.5-10.8,6.7-13.4
			c0.8-0.3,1.3-1.1,2-1.7C228.4,146.9,230.8,137.1,230.5,126.3z M339.2,189c-0.1-0.4-0.2-0.8-0.2-1.2c-1.3-0.4-2.5-0.8-3.8-1.1
			c-6.9-1.7-13.8-3.5-20.7-5.2c-2.8-0.6-4-2-3.9-4.9c0.2-4,0.1-8,0-12c-0.1-2.8,0.9-4.5,3.4-6.1c5.7-3.6,10.5-8.2,12.8-14.7
			c4.1-11.5,4.1-23.2,0.1-34.5c-4.2-11.9-13.2-19-26.1-20c-13.9-1.1-23.6,5.6-29.8,17.7c-3.3,6.5-2.9,13.5-3.1,20.5
			c-0.3,13.4,4.3,24.1,16,31.4c1.4,0.9,2.4,3.1,2.6,4.8c0.4,3.7-0.1,7.5,0.2,11.2c0.4,4.2-1.3,6.1-5.4,6.9
			c-4.8,0.9-9.6,2.4-15.3,3.8c9.5,11,8.5,23.8,8.8,37.2C296.9,211.2,318,200.1,339.2,189z M76.2,183.6c0,0.3,0,0.7,0,1
			c8.2,4.8,16.2,10,24.6,14.3c4.8,2.5,7.2,5.3,5.8,10.7c-0.2,0.7,0,1.5,0,2.2c-0.1,2.8,1.3,3.5,3.8,2.9c3.4-0.8,6.8-1.7,10.2-2.3
			c2.6-0.5,3.9-1.8,4-4.6c0.3-7.4,2.7-14.2,7-20.3c0.3-0.5,0.3-1.1,0.6-2.1c-5.3-1.3-10.3-2.8-15.4-3.8c-3.3-0.7-4.6-2.4-4.4-5.7
			c0.2-3.1,0.3-6.3,0-9.4c-0.4-4.2,1-6.9,4.8-9.2c6.3-3.8,10.7-9.5,12.4-16.7c2.6-10.4,2.7-20.8-0.8-31
			c-4.7-13.6-17.3-21.4-31.9-20.4c-12.5,0.9-24,11.4-26.3,24.5c-0.9,5-0.6,10.2-0.8,15.3c-0.6,13.2,5.1,23,16.1,30.1
			c1.3,0.8,2.4,2.9,2.5,4.5c0.3,4.5,0.1,9,0.1,13.5c0,2.4-1.1,3.7-3.4,4.2C82.2,182,79.2,182.8,76.2,183.6z M155.3,126
			c0.7-6.1,0.8-12.3,2.3-18.1c4.8-18.4,21.5-32.4,42.5-31.9c21.1,0.5,38,15.4,41.9,36.3c1.2,6.4,0.9,13.2,1,19.8
			c0.1,13.9-5.5,25.1-16.1,34c-0.9,0.8-1.4,2.1-2.1,3.2c1,0.6,2,1.4,3.1,1.8c19.8,5.7,19.8,5.7,39.7,0.7c0.8-0.2,1.8-0.3,2.5-0.7
			c1.1-0.5,2-1.2,3.1-1.8c-0.7-1.1-1.2-2.4-2.2-3.2c-6.4-5.3-10.9-11.9-13.7-19.7c-3.4-9.2-2.4-18.8-2.2-28.2
			c0.1-4.5,1-9.3,2.7-13.5c1.3-3.4,0.9-5.8-1-8.6c-14.3-21.3-34.2-32.3-59.8-31.3c-24.7,0.9-43.5,12.6-56.1,33.9
			c-0.6,1-1,2.8-0.6,3.8c3.7,8.6,3.8,17.7,3.9,26.9c0.1,15.1-4.9,27.6-16.7,37.2c-0.8,0.6-1.7,1.9-1.5,2.7c0.2,0.8,1.5,1.5,2.5,1.8
			c6.5,1.7,13.1,3.4,19.6,4.9c1.2,0.3,2.5,0.3,3.7,0c6.7-1.6,13.4-3.2,20-5c0.9-0.2,2.3-1.2,2.4-1.9c0.1-0.8-0.9-1.9-1.7-2.7
			c-2.2-2.2-4.7-4.2-6.6-6.6C157.7,149.9,154.9,138.5,155.3,126z M131.1,88.3c0.5-0.5,1.1-1.1,1.6-1.8c7.8-11.4,17.7-20.2,30-26.4
			c20.8-10.4,42.3-12,64.2-4.1c15.9,5.8,29,15.5,38.7,29.5c1.4,2.1,2.5,2.6,4.7,0.8c2.7-2.2,5.8-3.8,8.6-5.9c1.3-1,2.7-2.3,3.4-3.7
			c1.7-3.3,3-6.9,4.5-10.3c0.9-2.1,0.7-3.7-1-5.4c-4.9-4.8-9.8-9.6-14.6-14.6c-1.8-1.9-3.3-2.1-5.5-0.6c-3.9,2.7-7.9,5.3-12,7.7
			c-1.2,0.7-3.5,1-4.6,0.3c-9.1-5.3-18.6-9.5-28.9-12.2c-1.5-0.4-3.2-2.3-3.7-3.9c-1.3-4.3-2.1-8.7-3-13.1c-0.5-2.6-1.7-3.9-4.5-3.8
			c-6.4,0.1-12.7,0.1-19.1,0c-2.6,0-3.9,1-4.4,3.5c-0.9,4.5-1.7,9.1-3.1,13.5c-0.5,1.6-2.2,3.5-3.7,3.9c-10,2.6-19.4,6.5-28.2,12
			c-2.1,1.3-3.8,1.2-5.8-0.2c-3.7-2.6-7.6-4.8-11.3-7.4c-2.4-1.8-4.1-1.4-6.1,0.7c-3.8,4.1-7.9,8-11.9,12c-4.7,4.7-4.8,4.7-2.1,10.8
			c1.5,3.5,2.7,7.6,5.3,10.2C122.2,83.2,126.8,85.4,131.1,88.3z M45.9,284.5c0.5-1.7,0.9-2.9,1.2-4c6.7-26.9,13.5-53.8,20.2-80.7
			c0.6-2.3,1.3-4.5-1.6-6.1C52.5,186,39.3,178.2,26,170.6c-3.9-2.2-5.7-1.2-5.7,3.2c0,32.7,0,65.4-0.1,98.1c0,3.2,1.2,4.7,4.2,5.6
			c4,1.1,7.8,2.6,11.7,3.9C39.3,282.3,42.5,283.4,45.9,284.5z M93.8,211.7c-0.6-0.8-1.1-2-2-2.6c-2.8-1.9-5.8-3.5-8.7-5.2
			c-2.1-1.2-3.1-0.6-3.7,1.7c-6.6,26.7-13.3,53.3-20,80c-0.6,2.5,0.2,3.8,2.6,4.4c1.1,0.3,2.1,0.7,3.2,1c5.5,1.8,5.5,1.8,7.1-3.9
			c5.5-19.3,11.1-38.7,16.6-58C90.5,223.5,92.1,217.8,93.8,211.7z M120.5,317.1c0.6-0.3,2.4-0.5,3.5-1.5c4-3.7,7.9-7.6,11.6-11.6
			c2.3-2.5,2.1-5.9,0.1-8.2c-2.3-2.6-5.8-3.5-8.4-1.3c-4.6,4-9.1,8.2-12.8,12.9C111.2,311.6,114.3,316.9,120.5,317.1z M148.5,312.1
			c-0.4,0.1-1.6,0.1-2.2,0.8c-4.6,4.4-9.3,8.7-13.3,13.5c-1.9,2.3-1.4,5.6,1,7.8c2.3,2.2,5.6,2.7,7.9,0.7c4.6-4,9-8.2,12.7-13
			C157.7,317.7,154.3,312.2,148.5,312.1z M193.5,355.4c-1.4-1.9-2.5-4.1-4.2-5.2c-2.5-1.6-5.4-1-7.6,1.1c-3.4,3.2-6.6,6.5-9.9,9.8
			c-3.4,3.5-3.7,7.4-0.9,10.3c2.8,2.7,6.4,2.5,10-0.8c3.3-3.1,6.5-6.2,9.5-9.6C191.6,359.6,192.2,357.8,193.5,355.4z M174.8,336.9
			c-1.4-1.9-2.3-4.5-4.1-5.3c-2-0.8-5.3-0.7-6.9,0.6c-4.3,3.4-8.1,7.4-11.7,11.5c-2.7,3.1-2.1,7,0.7,9.4c2.6,2.2,6,1.9,9.1-1
			c3.4-3.3,6.8-6.6,10-10.1C173,340.8,173.6,339.1,174.8,336.9z M204.4,364.8c-2.3,2.7-4.3,5-6.2,7.3c-0.1,0.1-0.2,0.2-0.2,0.3
			c0,1.2-0.4,2.7,0.2,3.5c0.9,1.2,2.4,2.2,3.8,2.9c3,1.4,6.8,0.4,8.4-2c1.8-2.6,1.3-5.9-1.4-8.4C207.6,367.1,206,366.1,204.4,364.8z
			"/>
	</g>
</g>
<g id="Layer_2">
	<path class="st2" d="M390.8,106.1c-2.3,4.6-5,8.9-9.8,11.3c-12.7,6.4-27.2-2.2-27.5-16.5c-0.1-6.6,0-13.2,0-20.9
		c-1.9,1.7-3,2.6-4.1,3.7c-33.9,33.9-67.9,67.8-101.7,101.8c-2.8,2.8-4.7,3.2-8.2,1.3c-16-9.1-32.2-17.9-48.2-26.9
		c-2.6-1.5-4.3-1.3-6.6,0.5c-25.3,20.4-50.7,40.6-76,60.9c-22.8,18.3-45.7,36.5-68.5,54.9c-2.9,2.3-4.5,1.8-6.5-1
		c-5.5-7.3-5.8-5.9,1.3-11.6c32.8-26.3,65.7-52.6,98.5-78.8c16.6-13.3,33.3-26.5,49.8-39.9c2.3-1.9,4.1-2.1,6.7-0.7
		c14.8,8.3,29.6,16.4,44.4,24.7c7.1,4,7,4.2,12.7-1.5c38.3-38.3,76.6-76.6,114.9-114.9c1.1-1.1,2.2-2.1,4.1-3.9
		c0.1,2.4,0.2,3.7,0.2,5c0,14.4,0,28.9,0,43.3c0,2,0.2,4,0.8,5.9c0.9,2.7,3.3,4.4,5.8,3.6c2-0.7,3.6-2.9,5-4.7
		c0.6-0.7,0.2-2.2,0.2-3.3c0-24,0-48.1,0-72.1c0-5.1-0.1-5.2-5.2-5.2c-24,0-48.1,0-72.1,0c-1,0-2,0-3,0.1c-3.1,0.2-4.8,2.2-5.1,5
		c-0.4,2.7,1,5,3.6,5.9c1.8,0.6,3.9,0.8,5.9,0.8c16.4,0.1,32.9,0,49.3,0c1.3,0,2.6,0,5.1,0c-1.6,1.8-2.4,2.8-3.4,3.8
		c-37.3,37.3-74.7,74.7-112,112.1c-2.6,2.6-4.6,3.3-7.9,1.1c-13.6-8.8-27.5-17.1-41.1-25.9c-3.3-2.1-5.4-2.3-8.7,0.3
		c-41.3,32.7-82.7,65.2-124.1,97.7c-12.7,10-25.5,19.9-38.2,30c-2.4,1.9-3.8,1.8-5.7-0.8c-5.4-7.3-5.4-7.2,1.7-12.8
		c26.1-20.4,52.1-40.9,78.1-61.4c0.5-0.4,0.9-0.8,2.2-2c-4,0-7.2,0-10.3,0c-18.5,0-34.9-6.1-49.3-17.7
		C22.2,144.6,12.7,128.3,9,108.5c-0.2-1.1-0.6-2.1-0.8-3.2c0-7,0-14,0-20.9c0.2-0.5,0.5-0.9,0.5-1.4c3.1-20.6,12.7-37.6,28.8-50.7
		c17-13.9,36.7-19.9,58.4-17.9c21.8,2,40,11.6,54.1,28.4c14.7,17.6,20.9,38,18.3,60.8c-0.7,6-2.2,11.9-3.5,18.3
		c1.2-0.7,2.1-1.2,3-1.8c5.2-4.1,10.4-8.1,15.5-12.3c2.3-1.9,4.2-2.3,6.9-0.5c13.6,8.7,27.4,17.2,41.1,25.8c2.6,1.6,4.5,2.3,7.1-0.4
		c27.8-28,55.8-55.9,83.7-83.8c0.8-0.8,1.4-1.7,2.7-3.3c-2.4,0-3.7,0-5.1,0c-7.3,0-14.7,0.2-22-0.1c-13.8-0.4-22.3-14.8-16.3-27.2
		c2.5-5,6.7-7.8,11.5-10.2c32.6,0,65.3,0,97.9,0C390.8,40.8,390.8,73.4,390.8,106.1z M88.2,162.1c37,0,67.8-29.5,67.7-67.4
		c-0.1-38.4-30.1-67.5-67.7-67.8c-36.7-0.3-67.3,30.6-67.3,67.4C20.9,131.7,51,162.1,88.2,162.1z"/>
	<path class="st2" d="M254.8,390.8c0-60.3,0-120.5-0.1-180.8c0-3.6,1.3-4.7,4.8-4.7c34,0.1,68,0.1,102,0c3.1,0,4.8,0.6,4.8,4.3
		c-0.1,60.4-0.1,120.8-0.1,181.2C329,390.8,291.9,390.8,254.8,390.8z M310.5,242.9c-12.9,0-25.9,0.1-38.8,0c-3.1,0-4.4,1.1-4.1,4.1
		c0.1,0.6,0,1.2,0,1.9c0,5.9,0,5.9,5.7,5.9c16.2,0,32.4,0,48.6,0c7.8,0,7.8,0,7.7,8c-0.1,4.5-0.3,4.8-5,4.8c-10.6,0-21.2,0-31.7,0
		c-7.2,0-14.4,0-21.7,0c-2.5,0-3.8,0.9-3.6,3.5c0.1,1,0,2,0,3c0,5.4,0,5.4,5.4,5.4c20.3,0,40.6,0,60.9,0c5.4,0,10.7,0,16.1,0
		c2.3,0,3.4-0.8,3.5-3.3c0.1-10.2,0.3-8.4-7.9-8.6c-1.4,0-3.9-0.6-4-1.1c-0.4-3.3-0.7-6.7-0.1-9.9c0.2-0.9,3.5-1.7,5.4-1.7
		c6.6-0.2,6.6-0.1,6.5-6.6c0-0.1,0-0.2,0-0.4c0-4.7-0.2-4.9-4.8-4.9C335.9,242.9,323.2,242.9,310.5,242.9z M310.5,230.1
		c12.8,0,25.7-0.1,38.5,0.1c3.5,0,4.8-1.2,4.5-4.6c-0.1-0.7,0-1.5,0-2.2c0-4.9-0.2-5.1-5-5.1c-24.5,0-49.1,0-73.6,0
		c-7.4,0-7.2,0-7.3,7.3c0,3.4,1,4.6,4.5,4.6C284.8,230,297.7,230.1,310.5,230.1z M310.4,292.2c-1,0-2,0-3,0c-12,0-23.9,0.1-35.9,0
		c-2.8,0-4.2,0.9-4,3.9c0.1,0.9,0,1.7,0,2.6c0,5.3,0,5.3,5.5,5.3c24.5,0,49.1,0,73.6,0c6.9,0,6.9,0,6.8-7c0-4.6-0.2-4.8-4.9-4.8
		C335.8,292.2,323.1,292.2,310.4,292.2z M310.5,316.9c-12.8,0-25.7,0.1-38.5-0.1c-3.5,0-4.8,1.2-4.4,4.6c0.1,0.7,0,1.5,0,2.2
		c0,4.9,0.1,5.1,5,5.1c24.5,0,49.1,0,73.6,0c7.4,0,7.2,0,7.3-7.3c0-3.4-1.1-4.6-4.5-4.6C336.1,317,323.3,316.9,310.5,316.9z
		 M310.5,341.6c-12.8,0-25.7,0.1-38.5-0.1c-3.5,0-4.8,1.2-4.4,4.6c0.1,0.7,0,1.5,0,2.2c0,4.9,0.1,5.1,5,5.1c24.5,0,49.1,0,73.6,0
		c7.4,0,7.2,0,7.3-7.3c0-3.4-1.1-4.6-4.5-4.6C336.1,341.7,323.3,341.6,310.5,341.6z M310.5,378.1c12.8,0,25.7-0.1,38.5,0.1
		c3.4,0,4.9-1.2,4.5-4.6c-0.1-0.6,0-1.2,0-1.9c0-5.4,0-5.5-5.4-5.5c-24.4,0-48.8,0-73.2,0c-7.4,0-7.2,0-7.3,7.3
		c-0.1,3.7,1.4,4.7,4.9,4.6C285,378,297.8,378.1,310.5,378.1z"/>
	<path class="st2" d="M131.5,390.8c0-43.9,0-87.9-0.1-131.8c0-3.3,1.3-4.3,4.4-4.3c34.2,0.1,68.5,0.1,102.7,0c3.1,0,4.4,1,4.4,4.3
		c-0.1,43.9-0.1,87.9-0.1,131.8C205.7,390.8,168.6,390.8,131.5,390.8z M187.2,378.1c12,0,23.9,0,35.9,0c7.1,0,7,0,7.1-7.2
		c0.1-3.6-1.1-4.8-4.7-4.8c-16.6,0.1-33.1,0.1-49.7,0.1c-7.7,0-7.7,0-7.7-7.7c0-4.9,0.2-5.1,5-5.1c16.4,0,32.9,0,49.3,0
		c8,0,7.9,0,7.7-8.1c-0.1-2.7-1-3.8-3.7-3.8c-26.2,0.1-52.3,0-78.5,0.1c-1,0-2.9,0.5-3,0.8c-0.3,3.2-0.6,6.4-0.2,9.5
		c0.1,0.7,3.1,1.3,4.8,1.4c7.3,0.2,7.3,0.1,7.3,7.4c0,5.3-0.1,5.5-5.4,5.5c-7.4,0-7.2,0-7.3,7.3c0,3.4,1,4.6,4.5,4.6
		C161.5,378,174.3,378.1,187.2,378.1z M187.1,267.6c-12.8,0-25.7,0.1-38.5-0.1c-3.5,0-4.8,1.2-4.5,4.6c0.1,0.7,0,1.5,0,2.2
		c0,4.9,0.2,5.1,5,5.1c24.5,0,49.1,0,73.6,0c7.4,0,7.2,0,7.3-7.3c0-3.4-1.1-4.6-4.5-4.6C212.8,267.7,200,267.6,187.1,267.6z
		 M187.1,292.2c-12.8,0-25.7,0.1-38.5-0.1c-3.5,0-4.8,1.2-4.5,4.6c0.1,0.7,0,1.5,0,2.2c0,4.9,0.2,5.1,5,5.1c24.5,0,49.1,0,73.6,0
		c7.4,0,7.2,0,7.3-7.3c0-3.4-1.1-4.6-4.5-4.6C212.8,292.3,200,292.2,187.1,292.2z M187.2,328.7c12.8,0,25.7-0.1,38.5,0.1
		c3.5,0,4.8-1.2,4.5-4.6c-0.1-0.7,0-1.5,0-2.2c0-4.9-0.1-5.1-5-5.1c-24.5,0-49.1,0-73.6,0c-7.4,0-7.2,0-7.3,7.3
		c0,3.4,1.1,4.6,4.5,4.6C161.5,328.6,174.3,328.7,187.2,328.7z"/>
	<path class="st2" d="M8.1,304.1c35.6,0,71.1,0,106.7-0.1c3.5,0,4.8,1.1,4.8,4.7c-0.1,27.4-0.1,54.7-0.1,82.1
		c-37.1,0-74.2,0-111.4,0C8.1,361.9,8.1,333,8.1,304.1z M63.8,328.7c12.7,0,25.4,0,38.1,0c4.6,0,4.8-0.2,4.8-4.9c0-0.6,0-1.2,0-1.9
		c0-4.9-0.1-5.1-5-5.1c-24.5,0-49.1,0-73.6,0c-7.4,0-7.2,0-7.3,7.3c0,3.4,1.1,4.6,4.5,4.6C38.2,328.6,51,328.7,63.8,328.7z
		 M63.7,353.4c12,0,23.9,0,35.9,0c7.3,0,7.1,0,7.2-7.4c0-3.1-0.9-4.5-4.2-4.4c-25.8,0.1-51.5,0.1-77.3,0c-3.2,0-4.7,1-4.4,4.3
		c0.1,0.9,0,1.7,0,2.6c0,4.8,0.2,5,5.1,5C38.6,353.4,51.2,353.4,63.7,353.4z M63.8,366.2c-12.8,0-25.7,0.1-38.5-0.1
		c-3.5,0-4.8,1.2-4.5,4.6c0.1,0.7,0,1.5,0,2.2c0,4.9,0.2,5.1,5,5.1c24.5,0,49.1,0,73.6,0c7.3,0,7.2,0,7.3-7.3c0-3.4-1-4.6-4.5-4.6
		C89.5,366.3,76.6,366.2,63.8,366.2z"/>
	<path class="st2" d="M106.1,76.2c-3.1,0.5-5.6,0-6.8-4.7c-1.5-5.6-7.7-8.3-13.6-7c-5.3,1.1-9.5,6.4-9.3,11.6
		c0.2,6.1,4.7,11,10.9,11.8c2,0.3,4,0.3,5.9,0.7c11.6,2.5,18.8,10.6,20.2,22.5c1.1,9.3-4.6,19.8-14.1,24.3c-3.6,1.7-4.6,3.8-4.5,7.4
		c0.2,7.3,0.1,7.3-7.2,7.3c-5.4,0-5.5-0.1-5.5-5.4c0-1.2-0.1-2.5,0-3.7c0.2-2.6-0.9-4.1-3.4-5.1c-8.3-3.3-12.9-9.8-14.9-18.3
		c-1-4-0.2-4.9,4-5c1.7,0,3.6-0.4,5.2,0.1c1.4,0.4,3.3,1.6,3.6,2.8c2,7.3,8.6,10.2,15.1,8.8c5.5-1.2,8.8-6.3,8.3-12.9
		c-0.4-6-5.6-10.4-12.7-10.7c-8.6-0.4-15.2-4.4-19.9-11.4C59,77,64.3,59.1,78.2,53.3c3.1-1.3,4-3,4-6.1c-0.1-9,0.7-9.7,9.8-8.3
		c1.1,0.2,2.9,2.1,2.8,2.9c-1,6.9,1.5,10.9,8.1,14.1c5.6,2.7,8.8,8.6,10,15.1c0.9,4.9,0.7,5.2-4.1,5.2
		C108,76.2,107.4,76.2,106.1,76.2z"/>
	<path class="st2" d="M39.1,88.1c6.5,0,6.5,0,6.5,6.2c0,6.6,0,6.6-6.5,6.6c-6.3,0-6.3,0-6.3-6.4C32.7,88.1,32.7,88.1,39.1,88.1z"/>
	<path class="st2" d="M144.2,94.5c0,6.4,0,6.4-6.3,6.4c-6.5,0-6.5,0-6.5-6.6c0-6.2,0-6.2,6.5-6.2C144.2,88.1,144.2,88.1,144.2,94.5z
		"/>
</g>
</svg>
