<svg id="Layer_1" data-name="Layer 1" xmlns="http://www.w3.org/2000/svg" xmlns:xlink="http://www.w3.org/1999/xlink" viewBox="0 0 276.44 276.77"><defs><style>.cls-1{fill:#333740;stroke-linecap:round;stroke-linejoin:round;stroke-width:4px;stroke:url(#linear-gradient);}.cls-2{fill:#fff;}.cls-3{fill:#b4b4b4;}</style><linearGradient id="linear-gradient" x1="41.44" y1="41.6" x2="235" y2="235.17" gradientUnits="userSpaceOnUse"><stop offset="0" stop-color="#3e96d2"/><stop offset="1" stop-color="#253a77"/></linearGradient></defs><circle class="cls-1" cx="138.22" cy="138.39" r="134.87"/><path class="cls-2" d="M23.76,137.11a.67.67,0,0,1-.23-.24.59.59,0,0,1-.1-.28c0-.1,0-.16,0-.19.68-.45,1.34-.89,2-1.31s1.18-.74,1.55-1a6.43,6.43,0,0,1,.58-.33h0c.11,0,.19.12.25.37a7.34,7.34,0,0,0-.19,1.94v8.24a6.57,6.57,0,0,0,.17,1.65c0,.11.21.21.55.31a3.16,3.16,0,0,0,.73.15s.06.13.06.41a1.75,1.75,0,0,1,0,.29s-.39,0-1.08-.08-1.2-.07-1.53-.07-.82,0-1.49.07l-1.07.08a.59.59,0,0,1-.08-.39c0-.21,0-.31.08-.31a3.41,3.41,0,0,0,.76-.16c.36-.1.56-.2.58-.3a4.63,4.63,0,0,0,.13-1.2v-7.2a4.91,4.91,0,0,0-.05-.77,1,1,0,0,0-.12-.36.25.25,0,0,0-.18-.07.71.71,0,0,0-.2,0l-.3.15-.3.16L24,137Z"/><path class="cls-2" d="M35.16,133.71A3.9,3.9,0,0,1,38.09,135a4.33,4.33,0,0,1,1.21,3.1,7.82,7.82,0,0,1-.67,3.15,9,9,0,0,1-1.74,2.66,14.76,14.76,0,0,1-2.32,2,12.73,12.73,0,0,1-2.52,1.33c-.11,0-.2-.1-.28-.27a.84.84,0,0,1-.13-.39,9.36,9.36,0,0,0,3-2,7.22,7.22,0,0,0,1.88-3.12c.06-.17.05-.27,0-.31l0,0a2.45,2.45,0,0,1-.73.32,3.52,3.52,0,0,1-1,.15,3.61,3.61,0,0,1-2.67-1.11,3.67,3.67,0,0,1-1.1-2.65,3.89,3.89,0,0,1,1.24-2.86A4,4,0,0,1,35.16,133.71ZM37,138a4.67,4.67,0,0,0-.54-2.37,1.66,1.66,0,0,0-1.49-.94,1.44,1.44,0,0,0-1.27.74,4,4,0,0,0-.47,2.12,3.84,3.84,0,0,0,.55,2.16,1.87,1.87,0,0,0,1.67.82,1.66,1.66,0,0,0,.83-.22,1,1,0,0,0,.49-.53A5.89,5.89,0,0,0,37,138Z"/><path class="cls-2" d="M42.58,135.82a.84.84,0,0,0-.46.13,1.17,1.17,0,0,0-.33.24,1.48,1.48,0,0,0-.26.43c-.1.21-.16.35-.19.42s-.08.23-.16.48c0,.07-.13.11-.35.12a.72.72,0,0,1-.46-.06c.47-2,.73-3.12.77-3.41s.16-.25.37-.25h6l.84,0,.55,0c.09,0,.14.05.14.16a5.18,5.18,0,0,1-.58,1.41L42.94,147.2a.34.34,0,0,1-.19,0,.74.74,0,0,1-.49-.21.56.56,0,0,1-.23-.41l5.38-10.8Z"/><path class="cls-2" d="M51,137.11a.58.58,0,0,1-.22-.24.63.63,0,0,1-.11-.28.35.35,0,0,1,0-.19c.68-.45,1.35-.89,2-1.31s1.18-.74,1.55-1l.58-.33h0c.11,0,.2.12.25.37a7.79,7.79,0,0,0-.19,1.94v8.24A6.57,6.57,0,0,0,55.1,146c0,.11.21.21.56.31a3,3,0,0,0,.72.15s.06.13.06.41a1.07,1.07,0,0,1,0,.29s-.38,0-1.07-.08-1.2-.07-1.53-.07-.83,0-1.49.07l-1.08.08a.66.66,0,0,1-.08-.39c0-.21,0-.31.08-.31a3.57,3.57,0,0,0,.77-.16c.36-.1.55-.2.58-.3a5.17,5.17,0,0,0,.12-1.2v-7.2a4.91,4.91,0,0,0,0-.77,1.08,1.08,0,0,0-.11-.36.29.29,0,0,0-.19-.07l-.2,0-.3.15-.3.16-.33.19Z"/><path class="cls-2" d="M221.22,133.8a3,3,0,0,1,2.37,1,3.52,3.52,0,0,1,.91,2.47,4.19,4.19,0,0,1-.2,1.27,9.3,9.3,0,0,1-.46,1.21,6.93,6.93,0,0,1-.76,1.24c-.35.47-.64.85-.87,1.13s-.58.66-1,1.12-.77.78-1,1l-1,.91a.09.09,0,0,0,0,.1.09.09,0,0,0,.1.07h3.77a1.23,1.23,0,0,0,.79-.26,1.36,1.36,0,0,0,.45-.56,8.87,8.87,0,0,0,.29-.9.31.31,0,0,1,.33-.19.67.67,0,0,1,.41.11c-.38,1.83-.61,2.93-.68,3.29a.32.32,0,0,1-.33.31h-7.18c-.15-.09-.23-.31-.25-.67a30.6,30.6,0,0,0,3.7-4.69,8.18,8.18,0,0,0,1.56-4.06,2.53,2.53,0,0,0-.53-1.65,1.69,1.69,0,0,0-1.38-.64,2.39,2.39,0,0,0-.53.06,2.72,2.72,0,0,0-.48.15,3.18,3.18,0,0,0-.4.23l-.33.25a2.46,2.46,0,0,0-.28.28,2.37,2.37,0,0,0-.21.26c0,.06-.09.14-.16.23a.81.81,0,0,0-.09.15.58.58,0,0,1-.32-.14.41.41,0,0,1-.18-.29,4.54,4.54,0,0,1,.4-.72,7,7,0,0,1,.73-.89,4,4,0,0,1,2.81-1.14Z"/><path class="cls-2" d="M227.91,145.19a8.36,8.36,0,0,1,0-9.26,4,4,0,0,1,3.28-2,3.92,3.92,0,0,1,3.23,2,8.46,8.46,0,0,1,0,9.26,3.92,3.92,0,0,1-3.23,1.95A4,4,0,0,1,227.91,145.19Zm1-4.65a10.86,10.86,0,0,0,.66,4.05c.44,1.09,1,1.64,1.64,1.64s1.23-.55,1.62-1.64a12.46,12.46,0,0,0,.59-4.15,11.09,11.09,0,0,0-.61-4c-.41-1-.94-1.56-1.6-1.56s-1.23.54-1.66,1.6A11.24,11.24,0,0,0,228.91,140.54Z"/><path class="cls-2" d="M241.24,133.8a3.06,3.06,0,0,1,2.38,1,3.52,3.52,0,0,1,.91,2.47,4.22,4.22,0,0,1-.21,1.27,11.07,11.07,0,0,1-.45,1.21,7,7,0,0,1-.77,1.24c-.34.47-.63.85-.87,1.13s-.58.66-1,1.12l-1,1-1,.91c-.05,0-.06.06-.05.1a.1.1,0,0,0,.11.07h3.76a1.26,1.26,0,0,0,.8-.26,1.42,1.42,0,0,0,.44-.56,6.88,6.88,0,0,0,.29-.9.31.31,0,0,1,.33-.19.72.72,0,0,1,.42.11c-.39,1.83-.62,2.93-.69,3.29a.3.3,0,0,1-.33.31h-7.17c-.16-.09-.24-.31-.25-.67a29.93,29.93,0,0,0,3.69-4.69,8.18,8.18,0,0,0,1.56-4.06,2.48,2.48,0,0,0-.53-1.65,1.68,1.68,0,0,0-1.37-.64,2.48,2.48,0,0,0-.54.06,2.37,2.37,0,0,0-.47.15,3.3,3.3,0,0,0-.41.23l-.33.25a3.69,3.69,0,0,0-.28.28c-.1.11-.16.2-.21.26l-.15.23a.81.81,0,0,0-.09.15.53.53,0,0,1-.32-.14.41.41,0,0,1-.18-.29,3.75,3.75,0,0,1,.39-.72,7.21,7.21,0,0,1,.74-.89,3.77,3.77,0,0,1,1.21-.81A3.84,3.84,0,0,1,241.24,133.8Z"/><path class="cls-2" d="M247.55,137.11a.67.67,0,0,1-.23-.24.59.59,0,0,1-.1-.28c0-.1,0-.16,0-.19.68-.45,1.35-.89,2-1.31s1.18-.74,1.55-1a6.43,6.43,0,0,1,.58-.33h0c.11,0,.19.12.25.37a7.34,7.34,0,0,0-.19,1.94v8.24a6.57,6.57,0,0,0,.17,1.65c0,.11.21.21.55.31a3.16,3.16,0,0,0,.73.15s.06.13.06.41a1.75,1.75,0,0,1,0,.29s-.39,0-1.08-.08-1.19-.07-1.53-.07-.82,0-1.49.07l-1.07.08a.59.59,0,0,1-.08-.39c0-.21,0-.31.08-.31a3.41,3.41,0,0,0,.76-.16c.36-.1.56-.2.58-.3a4.63,4.63,0,0,0,.13-1.2v-7.2a4.91,4.91,0,0,0,0-.77,1,1,0,0,0-.12-.36.25.25,0,0,0-.18-.07.71.71,0,0,0-.2,0l-.3.15-.3.16-.33.19Z"/><path class="cls-2" d="M115.93,219.78q14,0,15.32-.31a3.74,3.74,0,0,1,.48,2.06,10.3,10.3,0,0,1-.66,4.46q-3.49.12-6.27.15l-4.17,0h-1.87q-.72.06-.78.54l-1.15,6.7a21.22,21.22,0,0,1,4.89-.6,13.62,13.62,0,0,1,8.75,3.34,10,10,0,0,1,4.1,7.94,12.86,12.86,0,0,1-4.86,10.25,17.71,17.71,0,0,1-11.85,4.11,12.8,12.8,0,0,1-7.06-2.06,5,5,0,0,1-.36-1.74,5.45,5.45,0,0,1,.57-2.51,2,2,0,0,1,2-1.12c1.17,0,2.3.73,3.38,2.18a5,5,0,0,0,4.22,2.11,4.75,4.75,0,0,0,4.47-2.47,11.34,11.34,0,0,0,1.39-5.62,9.53,9.53,0,0,0-2-6.33,6,6,0,0,0-4.73-2.41,24.51,24.51,0,0,0-2.5.12c-.79.08-1.37.16-1.75.24s-.78.18-1.18.3l-.66.18a3,3,0,0,1-1-.84q.06-.12.78-4.11c.49-2.65,1-5.52,1.54-8.59S115.77,220.7,115.93,219.78Z"/><path class="cls-2" d="M142.08,252.84a23,23,0,0,1,0-26.67q4.26-5.61,9.8-5.61t9.62,5.58a23.64,23.64,0,0,1,0,26.73q-4.12,5.58-9.62,5.58C148.18,258.45,144.92,256.57,142.08,252.84Zm4.19-13.4a33.26,33.26,0,0,0,1.66,11.4c1.11,3,2.44,4.47,4,4.47q2.66,0,3.95-4.35a42.6,42.6,0,0,0,1.3-11.82,37.22,37.22,0,0,0-1.39-11.37q-1.38-4.19-3.86-4.19c-1.77,0-3.15,1.44-4.16,4.34A36.19,36.19,0,0,0,146.27,239.44Z"/><path class="cls-3" d="M98.91,249a113.23,113.23,0,0,1-68.83-73.72l1-.29A112.25,112.25,0,0,0,99.27,248Z"/><path class="cls-3" d="M178.41,248.65l-.37-1A112.38,112.38,0,0,0,245.38,175l1,.29A113.38,113.38,0,0,1,178.41,248.65Z"/><rect class="cls-3" x="17.26" y="123.43" width="48.92" height="1.02"/><rect class="cls-3" x="210.26" y="123.43" width="48.92" height="1.02"/><rect class="cls-3" x="17.26" y="156.38" width="48.92" height="1.02"/><rect class="cls-3" x="210.26" y="156.38" width="48.92" height="1.02"/><path class="cls-2" d="M82.58,205.31H81.47l4.17-10.9h1.25L91,205.29H89.91l-1.28-3.41H83.86Zm5.7-4.4-2-5.47-2,5.47Z"/><path class="cls-2" d="M91.7,202.19h1a2.44,2.44,0,0,0,.55,1.61,1.83,1.83,0,0,0,1.41.6,2,2,0,0,0,1.48-.6,2.25,2.25,0,0,0,.56-1.61c0-1-.74-1.73-2.25-2.23l-.27-.08a3.49,3.49,0,0,1-1.69-1.06,2.47,2.47,0,0,1-.52-1.65,2.9,2.9,0,0,1,.81-2.12,2.71,2.71,0,0,1,2.06-.83,2.45,2.45,0,0,1,1.92.77,3.19,3.19,0,0,1,.79,2.12h-1a2.32,2.32,0,0,0-.52-1.36,1.48,1.48,0,0,0-1.18-.48,1.73,1.73,0,0,0-1.3.54,1.89,1.89,0,0,0-.49,1.34,1.73,1.73,0,0,0,.14.75,1.64,1.64,0,0,0,.48.55A5.56,5.56,0,0,0,95,199c.37.12.64.21.84.29a3.22,3.22,0,0,1,1.51,1.05,2.81,2.81,0,0,1,.45,1.67A3.85,3.85,0,0,1,97,204.6a2.86,2.86,0,0,1-2.25,1,2.78,2.78,0,0,1-2.13-.9A3.69,3.69,0,0,1,91.7,202.19Z"/><path class="cls-2" d="M98.72,202.19h1a2.44,2.44,0,0,0,.56,1.61,1.82,1.82,0,0,0,1.4.6,2,2,0,0,0,1.49-.6,2.25,2.25,0,0,0,.56-1.61c0-1-.75-1.73-2.25-2.23l-.27-.08a3.49,3.49,0,0,1-1.69-1.06,2.47,2.47,0,0,1-.52-1.65,2.9,2.9,0,0,1,.81-2.12,2.69,2.69,0,0,1,2.06-.83,2.45,2.45,0,0,1,1.92.77,3.18,3.18,0,0,1,.78,2.12h-1a2.26,2.26,0,0,0-.51-1.36,1.48,1.48,0,0,0-1.18-.48,1.71,1.71,0,0,0-1.3.54,1.89,1.89,0,0,0-.49,1.34,1.44,1.44,0,0,0,.61,1.3,5.77,5.77,0,0,0,1.3.58l.85.29a3.22,3.22,0,0,1,1.51,1.05,2.81,2.81,0,0,1,.45,1.67,3.85,3.85,0,0,1-.84,2.56,2.88,2.88,0,0,1-2.25,1,2.78,2.78,0,0,1-2.13-.9A3.6,3.6,0,0,1,98.72,202.19Z"/><path class="cls-2" d="M105.76,199.79a5.62,5.62,0,0,1,.43-2.16,5.7,5.7,0,0,1,1.26-1.84,5.42,5.42,0,0,1,1.74-1.18,5.37,5.37,0,0,1,2-.39,5.55,5.55,0,0,1,2.09.39,5.42,5.42,0,0,1,1.75,1.2,6,6,0,0,1,1.24,1.82,5.8,5.8,0,0,1,.41,2.16,6.3,6.3,0,0,1-.35,2.13,5.57,5.57,0,0,1-2.91,3.14,5.32,5.32,0,0,1-2.25.45,5.13,5.13,0,0,1-3.88-1.65A5.65,5.65,0,0,1,105.76,199.79Zm1.09,0a4.68,4.68,0,0,0,1.28,3.33,4.18,4.18,0,0,0,3.14,1.34,4.07,4.07,0,0,0,3.1-1.36,4.76,4.76,0,0,0,1.26-3.35,4.49,4.49,0,0,0-1.3-3.2,4.24,4.24,0,0,0-3.12-1.34,4,4,0,0,0-1.42.25,4.29,4.29,0,0,0-1.28.76,4.48,4.48,0,0,0-1.2,1.61A4.53,4.53,0,0,0,106.85,199.79Z"/><path class="cls-2" d="M126.73,197.24a4.21,4.21,0,0,0-3.65-2,4.08,4.08,0,0,0-3.06,1.35,4.51,4.51,0,0,0-1.28,3.2,4.69,4.69,0,0,0,1.26,3.32,4,4,0,0,0,3.08,1.36,4.28,4.28,0,0,0,2-.47,4.54,4.54,0,0,0,1.57-1.41h1.26a5.5,5.5,0,0,1-2,2.15,5.13,5.13,0,0,1-2.79.76,5.21,5.21,0,0,1-3.94-1.63,5.66,5.66,0,0,1-1.59-4.08,5.46,5.46,0,0,1,.43-2.17,5.88,5.88,0,0,1,3-3,5.62,5.62,0,0,1,4.93.4,5.6,5.6,0,0,1,2,2.25h-1.24v0Z"/><path class="cls-2" d="M130.57,205.31h-1V194.43h1Z"/><path class="cls-2" d="M132.31,205.31h-1.12l4.17-10.88h1.26l4.15,10.88h-1.14l-1.28-3.41h-4.76Zm5.69-4.4-2-5.47-2,5.47Z"/><path class="cls-2" d="M143.33,205.31h-1.05V195.5h-2.15v-1.07h5.35v1.07h-2.15Z"/><path class="cls-2" d="M147.62,199.3h4.5v1.07h-4.5v3.88h4.5v1.06h-5.57V194.43h5.57v1.07h-4.5Z"/><path class="cls-2" d="M153.57,202.19h1a2.44,2.44,0,0,0,.56,1.61,1.81,1.81,0,0,0,1.4.6,2,2,0,0,0,1.49-.6,2.25,2.25,0,0,0,.55-1.61c0-1-.74-1.73-2.25-2.23l-.26-.08a3.48,3.48,0,0,1-1.7-1.06,2.47,2.47,0,0,1-.51-1.65,2.9,2.9,0,0,1,.8-2.12,2.73,2.73,0,0,1,2.07-.83,2.48,2.48,0,0,1,1.92.77,3.23,3.23,0,0,1,.78,2.12h-1a2.26,2.26,0,0,0-.52-1.36,1.54,1.54,0,0,0-1.17-.48,1.71,1.71,0,0,0-1.3.54,1.9,1.9,0,0,0-.5,1.34,1.73,1.73,0,0,0,.14.75,1.76,1.76,0,0,0,.48.55,5.77,5.77,0,0,0,1.3.58l.85.29a3.19,3.19,0,0,1,1.5,1.05,2.82,2.82,0,0,1,.46,1.67,3.8,3.8,0,0,1-.85,2.56,2.86,2.86,0,0,1-2.25,1,2.78,2.78,0,0,1-2.13-.9A3.74,3.74,0,0,1,153.57,202.19Z"/><path class="cls-2" d="M161.45,206.5h-1l1.16-3.2h1.05Z"/><path class="cls-2" d="M170.18,205.31h-1.05V194.43h1.05Z"/><path class="cls-2" d="M179.29,204l-.13-9.58h1.06v10.88H179l-5.89-9.6.13,9.6h-1V194.43h1.25Z"/><path class="cls-2" d="M190.78,197.24a4.42,4.42,0,0,0-1.61-1.49,4.36,4.36,0,0,0-2-.48,4,4,0,0,0-3,1.35,4.46,4.46,0,0,0-1.28,3.2,4.65,4.65,0,0,0,1.26,3.32,4,4,0,0,0,3.07,1.36,4.28,4.28,0,0,0,2-.47,4.54,4.54,0,0,0,1.57-1.41H192a5.36,5.36,0,0,1-2,2.15,5.13,5.13,0,0,1-2.79.76,5.21,5.21,0,0,1-3.94-1.63,5.73,5.73,0,0,1,.1-8.09,5.57,5.57,0,0,1,1.72-1.18,5.62,5.62,0,0,1,4.93.4,5.53,5.53,0,0,1,2,2.25h-1.24Z"/><path class="cls-2" d="M195,205.31h-1.05v-2H195Z"/><path class="cls-2" d="M98.59,84.57h-1v19a2,2,0,0,0,.35.11,2.43,2.43,0,0,0,.41,0,2.06,2.06,0,0,0,1.61-.62,2.75,2.75,0,0,0,.54-1.84V86.82a2.4,2.4,0,0,0-.52-1.65A1.77,1.77,0,0,0,98.59,84.57Z"/><path class="cls-2" d="M98.59,111.12h-1v23.49a1.43,1.43,0,0,0,.33.1,2.82,2.82,0,0,0,.43,0,2,2,0,0,0,1.61-.62,2.74,2.74,0,0,0,.54-1.83V113.39a2.44,2.44,0,0,0-.52-1.69A1.79,1.79,0,0,0,98.59,111.12Z"/><path class="cls-2" d="M80.73,70.29V184.83H116.4V70.29Zm28.47,27.1a16.5,16.5,0,0,1-.87,6.09,7.24,7.24,0,0,1-3,3.39,6.68,6.68,0,0,1,3,3,15.62,15.62,0,0,1,.87,6.17v12.82q0,8.08-2,10.3t-8.56,2.21H89V77.93h11.64c3.06,0,5.24.76,6.59,2.27s2,4,2,7.34Z"/><path class="cls-2" d="M120.39,70.29V184.83h35.66V70.29Zm28.19,71.09h-7.24l-5.72-33.77H135l.45,33.77H127.9V77.86h7.24l5.58,31h.62l-.31-31h7.55Z"/><path class="cls-2" d="M177.38,84.57h-.62v26.75h.62a2.41,2.41,0,0,0,1.83-.53,5,5,0,0,0,.46-2.75V87.85a4.94,4.94,0,0,0-.46-2.76A2.38,2.38,0,0,0,177.38,84.57Z"/><path class="cls-2" d="M160,70.27V184.75h35.67V70.27Zm28.3,34.94q0,8.49-1.76,10.61c-1.17,1.43-3.48,2.13-7,2.13h-2.83v23.43h-8.67V77.93h11.48c3.48,0,5.82.72,7,2.12s1.76,5,1.76,10.61l0,14.55Z"/><path class="cls-2" d="M33.91,97.76a10.29,10.29,0,0,1,1.18.66c.65.39,1,.63,1,.73a9.24,9.24,0,0,1-.54,4,5.15,5.15,0,0,1-2.77,3.14,5.56,5.56,0,0,1-4.25.29,5.88,5.88,0,0,1-3.45-2.84,5.24,5.24,0,0,1-.41-4.34,18.86,18.86,0,0,1,1.69-3.69,4.47,4.47,0,0,1,1.09.25c.71.19,1.16.32,1.33.38s.2.21.12.47a.73.73,0,0,1-.14.2,2.28,2.28,0,0,0-.68,0,5,5,0,0,0-.87.28,2.68,2.68,0,0,0-1,.8,4.66,4.66,0,0,0-.75,1.46,3,3,0,0,0,.5,2.91,5.81,5.81,0,0,0,2.87,1.92,6.26,6.26,0,0,0,3.79.13A3.39,3.39,0,0,0,35,102.19a3.09,3.09,0,0,0-.16-2.59,2.62,2.62,0,0,0-.48-.58l-.56-.47c-.15-.11-.23-.18-.22-.2C33.68,98,33.8,97.77,33.91,97.76Z"/><path class="cls-2" d="M29.12,88.35c.21-.45.57-1.26,1.07-2.42s.89-2,1.17-2.63a13.87,13.87,0,0,0,1.41.36l1,.23a.58.58,0,0,1-.08.36c0,.11-.12.17-.21.16a2.15,2.15,0,0,0-2.31,1.34l-.38.8c-.35.76-.47,1.19-.35,1.27a6.39,6.39,0,0,0,1.21.68l2.43,1.15c.06,0,.2-.19.41-.64l.38-.8,0-.07a4.09,4.09,0,0,0,.42-1.1c0-.14-.13-.31-.41-.52a4.4,4.4,0,0,1-.35-.27c-.06,0-.06-.15,0-.3a.46.46,0,0,1,.22-.26l2.92,1.38a.47.47,0,0,1-.08.32c-.06.13-.14.2-.24.19a5.59,5.59,0,0,0-.71-.1.72.72,0,0,0-.26,0l-.16.09a4.72,4.72,0,0,0-.79,1.36c-.35.74-.48,1.13-.4,1.17l2.4,1.13a4.29,4.29,0,0,0,1.31.45c.16,0,.39-.31.7-1l.27-.57a4.51,4.51,0,0,0,.54-2,1.85,1.85,0,0,0-.28-.81,3.53,3.53,0,0,0-.72-.93s0-.12,0-.26a.83.83,0,0,1,.3-.39l.53.53.62.62.53.5c.22.18.4.33.54.42-.19.41-.61,1.26-1.25,2.54s-1.07,2.18-1.3,2.72l-.91,2.08s-.13,0-.27-.07-.25-.13-.24-.17a2.6,2.6,0,0,0,.18-.63c0-.29,0-.48,0-.56A5.77,5.77,0,0,0,36.64,93L30.8,90.24a5.31,5.31,0,0,0-1.32-.49q-.19,0-.48.3a2.22,2.22,0,0,0-.4.57s-.11,0-.26-.05-.23-.13-.25-.19C28.45,89.72,28.79,89,29.12,88.35Z"/><path class="cls-2" d="M38.11,76.38l5.45,3.4a4.92,4.92,0,0,0,1.24.6c.16,0,.42-.26.8-.87l.34-.54a4.5,4.5,0,0,0,.77-1.91,1.92,1.92,0,0,0-.18-.84,3.55,3.55,0,0,0-.6-1c-.06,0,0-.13,0-.26s.24-.33.34-.35l.46.58.54.69.47.56a4.25,4.25,0,0,0,.49.48c-.24.39-.76,1.18-1.54,2.37s-1.33,2-1.62,2.55l-1.14,2a.5.5,0,0,1-.26-.1c-.17-.11-.24-.17-.22-.2a3,3,0,0,0,.25-.61c.09-.28.1-.47,0-.56a6.17,6.17,0,0,0-1.26-.93L37,78a5.21,5.21,0,0,0-1.3-.65c-.11,0-.27.08-.48.26a2.49,2.49,0,0,0-.44.46s-.11,0-.25-.08-.24-.16-.24-.19l.54-.78c.34-.47.58-.83.75-1.1L36.69,74a.89.89,0,0,1,.26.11q.24.15.21.21a2.1,2.1,0,0,0-.21.59c-.09.31-.1.5-.05.56A6.45,6.45,0,0,0,38.11,76.38Z"/><path class="cls-2" d="M43.46,64.37c.32-.39.85-1.09,1.61-2.11s1.35-1.77,1.75-2.27c.3.17.73.4,1.29.67l.92.46a.6.6,0,0,1-.16.33.23.23,0,0,1-.24.11,2.15,2.15,0,0,0-2.56.76l-.56.69c-.52.66-.74,1-.63,1.15a6.44,6.44,0,0,0,1,1L48,66.79s.23-.13.55-.53l.55-.69,0,0a4.62,4.62,0,0,0,.67-1c0-.13-.07-.33-.29-.6l-.27-.34c0-.06,0-.16.08-.29a.45.45,0,0,1,.27-.2l2.52,2c0,.06,0,.16-.15.29s-.18.16-.28.13a5,5,0,0,0-.66-.26l-.27-.06-.17,0a4.92,4.92,0,0,0-1.09,1.15c-.51.64-.73,1-.66,1l2.07,1.66a4.51,4.51,0,0,0,1.17.74c.16,0,.46-.2.91-.77l.39-.49a4.45,4.45,0,0,0,1-1.81,1.8,1.8,0,0,0-.08-.85,3.67,3.67,0,0,0-.48-1.07c-.05,0,0-.14.07-.25s.28-.3.38-.31l.39.63.46.75c.1.17.24.38.4.61a5.17,5.17,0,0,0,.42.54c-.28.35-.88,1.08-1.8,2.17s-1.56,1.88-1.9,2.35l-1.37,1.81s-.13,0-.25-.13-.21-.19-.19-.22a3.09,3.09,0,0,0,.32-.58c.12-.27.15-.45.1-.55a6.5,6.5,0,0,0-1.14-1.07l-5-4a6,6,0,0,0-1.17-.79q-.18-.07-.54.18a3.24,3.24,0,0,0-.52.46s-.11,0-.24-.1a.48.48,0,0,1-.2-.25C42.49,65.54,43,65,43.46,64.37Z"/><path class="cls-2" d="M58.09,60.78l-4.54-4.6a5.37,5.37,0,0,0-1.07-.92c-.11-.06-.3,0-.56.12a2.76,2.76,0,0,0-.57.39s-.11,0-.23-.13a.44.44,0,0,1-.16-.27q.84-.75,1.65-1.56l1-1,.73-.72a5.24,5.24,0,0,1,1-.76,5.37,5.37,0,0,1,1.18-.5,2.57,2.57,0,0,1,1.32,0,2.61,2.61,0,0,1,1.23.73,1.94,1.94,0,0,1,.55,1.07,2.69,2.69,0,0,1,0,1,2.5,2.5,0,0,1-.17.59c0,.09,0,.13,0,.12a2.88,2.88,0,0,1,1.64-.35,2.87,2.87,0,0,1,2.72,3.35,5.08,5.08,0,0,1-1.64,2.82l-1.74,1.7-1.57,1.64s-.13,0-.23-.16-.19-.22-.17-.24a2.89,2.89,0,0,0,.39-.53c.15-.26.2-.44.16-.54A5.7,5.7,0,0,0,58.09,60.78Zm0-5.61a1.51,1.51,0,0,0-.28-2.07c-1.08-1.1-2.09-1.18-3-.26a4.05,4.05,0,0,0-.72.83.17.17,0,0,0,0,.23l1.13,1.19,1.4,1.42c.08.08.37-.12.85-.6A3.1,3.1,0,0,0,58.05,55.17Zm3.69,1.21a2.64,2.64,0,0,0-1.69-.86,2.48,2.48,0,0,0-1.9.87,8.13,8.13,0,0,0-.69.8.35.35,0,0,0,.14.34l2.23,2.27c.34.34.6.5.77.49a2.16,2.16,0,0,0,.9-.65,3.56,3.56,0,0,0,.47-.57,3,3,0,0,0,.36-.74,1.49,1.49,0,0,0,0-1A2.31,2.31,0,0,0,61.74,56.38Z"/><path class="cls-2" d="M65.17,42.63a5.16,5.16,0,0,1,.8-.49,4.62,4.62,0,0,1,1-.36A4.06,4.06,0,0,1,68,41.65a2.43,2.43,0,0,1,1,.28,2.66,2.66,0,0,1,.93.79,2.92,2.92,0,0,1,.58,1.75,3.32,3.32,0,0,1-.45,1.81c0,.08,0,.14,0,.17a20.12,20.12,0,0,0,3.28,1.16,7,7,0,0,0,1.79.21,2.19,2.19,0,0,0,1.33-.35.49.49,0,0,1,.22.17.74.74,0,0,1,.13.29,3.09,3.09,0,0,1-.4.35,5.42,5.42,0,0,1-1.38.79,3.69,3.69,0,0,1-1.35.27,7.72,7.72,0,0,1-1.16-.1,7.22,7.22,0,0,1-1.15-.33l-.92-.3-.8-.28-.61-.2a3.13,3.13,0,0,0-.53-.11.93.93,0,0,0-.34,0,1.1,1.1,0,0,0-.35.21.25.25,0,0,0,0,.4l1.46,1.91a5.87,5.87,0,0,0,1,1.08c.11.08.33.06.66-.09a3.63,3.63,0,0,0,.68-.35s.12,0,.23.19a.78.78,0,0,1,.15.25c-1,.7-1.7,1.17-2,1.39s-.51.4-.81.64l-.7.59-.25.24c-.06,0-.13-.09-.23-.22s-.15-.23-.12-.25a3.14,3.14,0,0,0,.45-.48c.19-.24.27-.41.24-.52a6.25,6.25,0,0,0-.86-1.3l-3.91-5.14A6,6,0,0,0,63,45.54c-.08-.06-.27,0-.57.08a2.21,2.21,0,0,0-.61.28s-.11,0-.21-.16-.15-.23-.14-.29c1-.7,1.6-1.15,1.84-1.33l.94-.74Zm.3.84a3,3,0,0,0-.72.7c-.06.12.24.63.92,1.54l1.19,1.56a.48.48,0,0,0,.53.22,2,2,0,0,0,.71-.39l.35-.27A1.47,1.47,0,0,0,69,45.67a2.4,2.4,0,0,0-.54-1.55Q67.05,42.28,65.47,43.47Z"/><path class="cls-2" d="M80.26,32.73l7.49,6.08c.37.32.72.6,1.06.84a.82.82,0,0,0,.67.1,2.88,2.88,0,0,0,.65-.18s.11,0,.21.23a.72.72,0,0,1,.09.24L88.5,41l-1.89,1.17a.52.52,0,0,1-.22-.24c-.08-.15-.1-.23-.06-.25a2.37,2.37,0,0,0,.45-.37c.17-.17.26-.31.25-.41a.43.43,0,0,0-.06-.22,4.09,4.09,0,0,0-.86-.88l-1.29-1.09a.23.23,0,0,0-.14,0c-.33.16-.76.39-1.3.69s-1.1.63-1.68,1c-.06,0-.08.07-.06.11l.21,1.71a4.5,4.5,0,0,0,.26,1.13.39.39,0,0,0,.33.2,1.59,1.59,0,0,0,.56-.1,3.33,3.33,0,0,0,.5-.17s.09.05.16.18a1.57,1.57,0,0,1,.13.3l-.73.35c-.44.2-.78.37-1,.52a10.51,10.51,0,0,0-.9.55l-.73.47a.37.37,0,0,1-.18-.19c-.1-.18-.14-.28-.12-.29a2.2,2.2,0,0,0,.5-.45,1,1,0,0,0,.34-.57,7.3,7.3,0,0,0-.08-1.48l-1-8.26a4,4,0,0,1,0-1.39.48.48,0,0,1,.2-.24A.28.28,0,0,1,80.26,32.73Zm1.3,6.56c.37-.17.73-.35,1.1-.56s.75-.43,1.2-.72v-.08l-2.8-2.35.44,3.66S81.54,39.3,81.56,39.29Z"/><path class="cls-2" d="M93.4,26.51l1.78-.63,1.75-.72c.71-.31,1.29-.55,1.72-.72a6,6,0,0,0,1-.59l1.24,2.33a.75.75,0,0,1-.39.28.18.18,0,0,1-.19,0,2.48,2.48,0,0,0-1-1A1.88,1.88,0,0,0,98,25.6c-1,.38-1.48.67-1.45.87A6.07,6.07,0,0,0,97,28l2.21,5.77a6,6,0,0,0,.67,1.33c0,.07.22.09.52.07a2.73,2.73,0,0,0,.61-.1s.1.07.17.26a1.35,1.35,0,0,1,.07.27l-.64.19-.76.24-.67.24c-.29.11-.68.27-1.17.5l-.91.42A.36.36,0,0,1,97,37c-.08-.19-.09-.3,0-.31a2.83,2.83,0,0,0,.56-.34q.36-.27.36-.42a5.57,5.57,0,0,0-.38-1.37l-2.21-5.78a4.74,4.74,0,0,0-.74-1.49c-.15-.15-.69-.05-1.62.31a1.87,1.87,0,0,0-1,.75,2.48,2.48,0,0,0-.16,1.4c0,.07,0,.12-.12.16a.54.54,0,0,1-.46,0l-.63-2.54a5.5,5.5,0,0,0,1.16-.26Z"/><path class="cls-2" d="M106.12,24.66a5.15,5.15,0,0,0-.51-1.35c-.07-.08-.24-.12-.53-.13a2.7,2.7,0,0,0-.63,0s-.09-.06-.13-.22a.81.81,0,0,1,0-.31l.93-.2c.56-.12,1-.22,1.29-.3.09,0,.78-.24,2.09-.67a.81.81,0,0,1,.12.25c0,.19,0,.29,0,.3a2.69,2.69,0,0,0-.56.29c-.27.17-.41.3-.41.38a6.19,6.19,0,0,0,.26,1.49l1.68,6.2a6.18,6.18,0,0,0,.56,1.44c0,.08.21.11.51.12a2.32,2.32,0,0,0,.61,0s.09.09.15.29a1.12,1.12,0,0,1,0,.24l-2.12.47-.69.21-.79.26-.69.23a.31.31,0,0,1-.13-.21c-.06-.21-.06-.32,0-.34a2.61,2.61,0,0,0,.59-.28c.26-.15.39-.28.4-.37a5.71,5.71,0,0,0-.24-1.43Z"/><path class="cls-2" d="M122.76,21.22a4,4,0,0,0-.38-1.32c-.08-.13-.28-.21-.61-.24a3.23,3.23,0,0,0-.77,0s-.09-.07-.12-.23a.54.54,0,0,1,0-.32L123,18.9c.29,0,.67-.13,1.12-.24l.86-.2a1.09,1.09,0,0,1,.07.27c0,.19,0,.29,0,.3a2.9,2.9,0,0,0-.71.24,1,1,0,0,0-.58.44,3.86,3.86,0,0,0,0,1.43l1,6.4c.07.41.21,1.19.44,2.36a.65.65,0,0,1-.36.12.72.72,0,0,1-.6-.3l-8.12-7.86,1.07,6.84a4.78,4.78,0,0,0,.36,1.36c.07.13.3.21.67.25a3.1,3.1,0,0,0,.79,0s.06.07.09.23a1.13,1.13,0,0,1,0,.33l-2.13.23c-.3,0-.67.12-1.11.21l-.88.2a.43.43,0,0,1-.11-.28c0-.18,0-.27,0-.28a3.47,3.47,0,0,0,.75-.24,1,1,0,0,0,.56-.48,4.09,4.09,0,0,0-.06-1.44l-1-6.62a2.73,2.73,0,0,0-.38-1.21c0-.07-.26-.11-.61-.13a5.42,5.42,0,0,0-.77,0s-.08-.07-.12-.24a.54.54,0,0,1,0-.33l2-.23c.37-.06.87-.17,1.5-.32a18.59,18.59,0,0,0,1.46,1.61c.69.71,1.63,1.63,2.83,2.77s2,1.94,2.45,2.38a5.64,5.64,0,0,0-.08-.7Z"/><path class="cls-2" d="M131.27,23.85a5.86,5.86,0,0,1,1.58-4.18,5.27,5.27,0,0,1,4-1.81,17.49,17.49,0,0,1,4,.57,5.39,5.39,0,0,1,.16,1.14c.08.74.11,1.18.12,1.32s-.11.2-.34.21a.61.61,0,0,1-.38-.1,4.26,4.26,0,0,0-.15-.47,4.24,4.24,0,0,0-.35-.6,2.57,2.57,0,0,0-.61-.62,3.53,3.53,0,0,0-1-.44,4.5,4.5,0,0,0-1.38-.17,3,3,0,0,0-2.59,1.37,5.78,5.78,0,0,0-.88,3.44,6.57,6.57,0,0,0,.47,2.36,4.59,4.59,0,0,0,1.42,1.91,3.74,3.74,0,0,0,3.86.4.45.45,0,0,0,.16-.39l0-1.23v-.12a5.22,5.22,0,0,0-.14-1.38c0-.15-.22-.26-.51-.32a3.69,3.69,0,0,0-.73-.09s-.07-.08-.07-.25a.51.51,0,0,1,.06-.31c.13,0,.47,0,1,0l1.36,0,2.06-.14a.79.79,0,0,1,.06.29c0,.2,0,.29-.06.29a2.21,2.21,0,0,0-.45.11l-.51.18c-.14.1-.21.51-.2,1.25,0,.24,0,.48,0,.72s0,.37,0,.39a1.36,1.36,0,0,0,.09.53,1.52,1.52,0,0,1,.09.26c0,.16-.12.3-.37.41-.45.22-.78.36-1,.45a10.85,10.85,0,0,1-1.23.31,11.35,11.35,0,0,1-2,.2,5.05,5.05,0,0,1-3.86-1.61A5.62,5.62,0,0,1,131.27,23.85Z"/><path class="cls-2" d="M152.75,30.24c-.34,0-.7-.1-1.09-.14l-.9-.08-.34,0s0-.13,0-.28.06-.28.1-.28a2.45,2.45,0,0,0,.66,0c.29,0,.47-.09.53-.18a6.77,6.77,0,0,0,.36-1.52l1-6.38a5.61,5.61,0,0,0,.09-1.41c0-.12-.15-.25-.42-.37a2.61,2.61,0,0,0-.66-.23s0-.09,0-.26.07-.26.12-.29c.72.16,1.46.29,2.22.41.52.1,1.42.22,2.68.37s2.19.27,2.79.37c0,.34,0,.83.05,1.45s.06,1,.06,1a.48.48,0,0,1-.36,0c-.13,0-.2-.07-.22-.15a2.15,2.15,0,0,0-1.93-1.84l-.88-.14c-.83-.13-1.27-.13-1.31,0a7.44,7.44,0,0,0-.3,1.35l-.42,2.65c0,.07.23.14.73.22l.86.13h.07a3.94,3.94,0,0,0,1.18.1c.13,0,.26-.22.38-.54s.11-.3.16-.41.12-.1.29-.08a.47.47,0,0,1,.31.14l-.5,3.19c-.05,0-.16,0-.33,0s-.23-.08-.25-.18c0-.32-.07-.55-.1-.71a.7.7,0,0,0-.09-.25l-.12-.13a4.76,4.76,0,0,0-1.54-.37c-.8-.13-1.2-.15-1.22-.06L154,28a4.15,4.15,0,0,0,0,1.43c0,.12.22.26.56.42a3.66,3.66,0,0,0,.7.27c.06,0,.07.11,0,.3a.51.51,0,0,1-.09.26C153.79,30.44,153,30.28,152.75,30.24Z"/><path class="cls-2" d="M164.84,23.52a5.39,5.39,0,0,0,.21-1.43c0-.1-.15-.22-.4-.37a2,2,0,0,0-.57-.27s0-.1,0-.27a.65.65,0,0,1,.11-.29l.9.28,1.28.37,2.15.43a1.1,1.1,0,0,1,0,.27c-.05.19-.09.28-.14.27a2.64,2.64,0,0,0-.63,0c-.32,0-.5.06-.54.13a6.27,6.27,0,0,0-.49,1.43l-1.55,6.24a6.58,6.58,0,0,0-.22,1.53c0,.08.14.2.4.35a3.2,3.2,0,0,0,.54.27s0,.12,0,.33a.63.63,0,0,1-.09.22l-2.09-.62-.7-.15-.81-.16-.72-.13a.4.4,0,0,1,0-.25c.06-.21.1-.31.15-.3a3.38,3.38,0,0,0,.65,0c.3,0,.48-.06.53-.14a5.37,5.37,0,0,0,.48-1.36Z"/><path class="cls-2" d="M171,34.45,170,34.12l-.87-.24-.33-.09a.45.45,0,0,1,0-.28c.06-.18.11-.27.14-.26a2.59,2.59,0,0,0,.65.11.79.79,0,0,0,.56-.09,6.56,6.56,0,0,0,.61-1.43l2.1-6.12a5.15,5.15,0,0,0,.34-1.36c0-.13-.11-.28-.35-.45a2.7,2.7,0,0,0-.61-.33s0-.1,0-.27a.52.52,0,0,1,.16-.27c.69.29,1.4.55,2.12.8.5.19,1.36.46,2.58.83s2.11.65,2.68.85q-.1.51-.21,1.44c-.07.62-.1,1-.11,1a.57.57,0,0,1-.37,0c-.12,0-.18-.1-.19-.19a2.14,2.14,0,0,0-1.57-2.15l-.84-.29c-.8-.27-1.23-.34-1.3-.21a7.16,7.16,0,0,0-.53,1.28l-.87,2.54c0,.07.2.18.67.34l.83.29.06,0a4.71,4.71,0,0,0,1.15.3c.13,0,.29-.17.46-.47a4,4,0,0,1,.24-.37q.06-.11.3,0a.54.54,0,0,1,.28.19l-1,3.05a.46.46,0,0,1-.33,0c-.14,0-.21-.12-.21-.21a6.58,6.58,0,0,0,0-.72,1.46,1.46,0,0,0,0-.26l-.1-.15a5,5,0,0,0-1.45-.64c-.76-.26-1.16-.35-1.19-.26l-.87,2.54a4.13,4.13,0,0,0-.28,1.4c0,.12.16.29.47.5a3.48,3.48,0,0,0,.65.39c.05,0,.05.12,0,.3a.49.49,0,0,1-.14.24C172,34.82,171.23,34.53,171,34.45Z"/><path class="cls-2" d="M187.92,29.1c.68.36,1.24.65,1.68.86s1,.48,1.72.8l1.71.76a6.05,6.05,0,0,0,1.13.36l-.85,2.49a.64.64,0,0,1-.47-.09c-.08,0-.12-.09-.11-.15a2.58,2.58,0,0,0,0-1.43,1.91,1.91,0,0,0-1-.83c-.95-.47-1.49-.62-1.61-.47a6.14,6.14,0,0,0-.85,1.38l-2.7,5.55a5.65,5.65,0,0,0-.51,1.4c0,.08.08.22.31.43a2.78,2.78,0,0,0,.48.37s0,.13-.07.31a.91.91,0,0,1-.15.23l-.57-.33-.7-.4c-.22-.12-.43-.23-.63-.32s-.67-.31-1.17-.52l-.93-.37a.41.41,0,0,1,.06-.28c.09-.18.15-.26.19-.24a3.31,3.31,0,0,0,.63.17c.3,0,.48,0,.55,0a5.26,5.26,0,0,0,.75-1.22l2.7-5.56a4.62,4.62,0,0,0,.59-1.56c0-.21-.44-.53-1.33-1a1.93,1.93,0,0,0-1.25-.24,2.59,2.59,0,0,0-1.14.85c0,.05-.1.06-.2,0a.66.66,0,0,1-.34-.32l1.43-2.2a4.9,4.9,0,0,0,1,.67Z"/><path class="cls-2" d="M200.9,36.2c.17.11.84.52,2,1.22a.75.75,0,0,1-.15.27c-.09.13-.15.19-.18.17a2,2,0,0,0-.58-.24c-.23-.06-.39,0-.48.11a.94.94,0,0,0-.12.45L201.08,42c0,.07.07.1.17.06.81-.33,1.62-.7,2.43-1.09a4.75,4.75,0,0,0,1.38-.85c.07-.1,0-.25-.08-.45a2,2,0,0,0-.61-.58s0-.11.07-.24.16-.21.22-.23c.92.7,1.47,1.1,1.65,1.22s.42.27.6.38l.56.33.46.25a.9.9,0,0,1-.12.24c-.1.16-.17.22-.21.2a2.19,2.19,0,0,0-.67-.27,1.39,1.39,0,0,0-.78,0c-.55.22-1.56.68-3,1.36a14.44,14.44,0,0,0-2.34,1.2l-1.47,2.22a6.84,6.84,0,0,0-.74,1.36c0,.08.06.24.25.48a2.93,2.93,0,0,0,.39.44s0,.11-.09.27a.72.72,0,0,1-.18.2l-.51-.4-.63-.48-.57-.4c-.26-.17-.62-.39-1.08-.65l-.86-.49a.39.39,0,0,1,.1-.26c.1-.15.16-.22.19-.2a2.71,2.71,0,0,0,.61.23c.28.09.47.1.55,0a6.27,6.27,0,0,0,.94-1.18l1.4-2.1a1.16,1.16,0,0,0,.09-.34c0-.18.06-.46.1-.84s.06-.71.08-1,.06-.74.1-1.36.08-1.09.11-1.39a3.41,3.41,0,0,0-.09-1.47,1.61,1.61,0,0,0-.3-.46,1.84,1.84,0,0,0-.36-.35s0-.08,0-.17A.68.68,0,0,1,199,35C199.24,35.11,199.87,35.52,200.9,36.2Z"/><path class="cls-2" d="M217.41,48.71c.15.15.75.66,1.78,1.56a.83.83,0,0,1-.19.24c-.11.11-.18.15-.21.13a1.79,1.79,0,0,0-.53-.34c-.22-.1-.38-.09-.49,0a1,1,0,0,0-.2.42l-1,3.66q0,.12.15.09,1.29-.28,2.58-.66a4.56,4.56,0,0,0,1.51-.59c.09-.09.09-.25,0-.46a1.9,1.9,0,0,0-.5-.68s0-.1.12-.22a.64.64,0,0,1,.25-.19c.78.85,1.25,1.34,1.41,1.49l.53.48.5.41.4.33a.89.89,0,0,1-.16.22q-.18.21-.24.15a2.43,2.43,0,0,0-.62-.37,1.34,1.34,0,0,0-.76-.16c-.57.13-1.65.4-3.22.81a13.28,13.28,0,0,0-2.52.79l-1.83,1.93a6,6,0,0,0-1,1.21c0,.07,0,.24.16.51a1.89,1.89,0,0,0,.31.5s0,.12-.14.25a.92.92,0,0,1-.21.17l-.44-.48-.53-.58c-.17-.17-.33-.34-.5-.49s-.54-.49-.94-.83l-.76-.63a.38.38,0,0,1,.14-.25c.12-.13.2-.18.22-.16a2.12,2.12,0,0,0,.55.34c.27.13.45.17.54.13a6.2,6.2,0,0,0,1.13-1l1.75-1.83a1.05,1.05,0,0,0,.15-.32q.09-.26.24-.81c.09-.37.18-.69.25-1s.18-.71.33-1.32.27-1.06.35-1.35a3.24,3.24,0,0,0,.16-1.47,1.73,1.73,0,0,0-.21-.5,2.18,2.18,0,0,0-.29-.4s0-.08.07-.17a.43.43,0,0,1,.19-.15C216,47.36,216.52,47.87,217.41,48.71Z"/><path class="cls-2" d="M228.25,59.88c.31.38.89,1.06,1.72,2s1.45,1.68,1.87,2.18c-.24.25-.55.63-.93,1.12s-.6.76-.64.8-.17-.08-.29-.22-.1-.18-.06-.26a2.14,2.14,0,0,0-.21-2.66l-.56-.69c-.54-.65-.87-.94-1-.86a7,7,0,0,0-1.13.8l-2.08,1.7c-.05,0,.08.26.4.65l.56.68,0,.06a4.27,4.27,0,0,0,.81.86c.12.06.34,0,.65-.16a3.38,3.38,0,0,1,.39-.19c.07,0,.16,0,.27.14a.49.49,0,0,1,.14.3l-2.5,2c-.07,0-.15-.08-.26-.21a.25.25,0,0,1-.07-.3,4.71,4.71,0,0,0,.4-.6,1.44,1.44,0,0,0,.11-.24,1.11,1.11,0,0,1,0-.18,4.72,4.72,0,0,0-.89-1.3c-.52-.64-.81-.92-.89-.87l-2,1.68a4.64,4.64,0,0,0-1,1c-.08.14.11.48.57,1l.4.49A4.5,4.5,0,0,0,223.6,70a1.86,1.86,0,0,0,.86.1,3.6,3.6,0,0,0,1.14-.25c.06,0,.14,0,.23.12a.8.8,0,0,1,.23.44l-.7.25-.83.29-.68.27a4.33,4.33,0,0,0-.61.3c-.29-.35-.88-1.09-1.76-2.22S220,67.43,219.58,67l-1.49-1.72s.06-.12.18-.21.23-.17.26-.14a3.47,3.47,0,0,0,.49.43c.24.17.41.24.52.21a6.33,6.33,0,0,0,1.28-.89l5-4.1a5.53,5.53,0,0,0,1-1c.07-.1,0-.29-.07-.56a2.94,2.94,0,0,0-.34-.61s0-.1.15-.21.22-.15.29-.14C227.3,58.69,227.76,59.29,228.25,59.88Z"/><path class="cls-2" d="M239.09,74.76l-5.73,7.77c-.3.38-.56.74-.79,1.09a.82.82,0,0,0-.06.68,2.23,2.23,0,0,0,.21.63s-.05.11-.23.22a.62.62,0,0,1-.23.11q-1-1.8-1-1.89c0-.07-.46-.68-1.25-1.83,0-.07.09-.14.23-.23s.22-.11.25-.07a2.19,2.19,0,0,0,.38.43.69.69,0,0,0,.43.23.4.4,0,0,0,.21-.07,3.75,3.75,0,0,0,.84-.9l1-1.34a.17.17,0,0,0,0-.14c-.17-.32-.42-.74-.75-1.27s-.68-1.06-1.06-1.63c0-.06-.08-.07-.12,0l-1.69.29a5.16,5.16,0,0,0-1.12.3.39.39,0,0,0-.19.34,1.77,1.77,0,0,0,.13.56,2.42,2.42,0,0,0,.2.49s0,.09-.18.17a1,1,0,0,1-.29.14l-.38-.71c-.22-.43-.41-.76-.57-1s-.35-.54-.59-.87l-.5-.7c0-.06.07-.13.18-.19s.27-.16.28-.14a2.45,2.45,0,0,0,.47.49,1.06,1.06,0,0,0,.58.31,8.9,8.9,0,0,0,1.48-.15l8.21-1.34a3.52,3.52,0,0,1,1.38-.11.46.46,0,0,1,.26.18A.28.28,0,0,1,239.09,74.76Zm-6.49,1.6c.18.36.39.72.61,1.08s.47.72.78,1.16h.08l2.22-2.9-3.65.61S232.59,76.34,232.6,76.36Z"/><path class="cls-2" d="M246.54,89a4.64,4.64,0,0,1,.28.89,4.88,4.88,0,0,1,.12,1,4.08,4.08,0,0,1-.13,1.07,2.41,2.41,0,0,1-.52,1,2.77,2.77,0,0,1-1,.72,2.93,2.93,0,0,1-1.84.14,3.34,3.34,0,0,1-1.64-.87c-.07-.07-.13-.07-.18,0a20.24,20.24,0,0,0-1.91,2.91,7.71,7.71,0,0,0-.64,1.68,2.26,2.26,0,0,0,0,1.38.4.4,0,0,1-.22.17.57.57,0,0,1-.31.06,4.94,4.94,0,0,1-.24-.47,5.57,5.57,0,0,1-.44-1.53,3.65,3.65,0,0,1,.06-1.37,6.4,6.4,0,0,1,.37-1.1,6.94,6.94,0,0,1,.6-1c.14-.24.31-.52.51-.83l.47-.71c.11-.16.22-.35.33-.54a4.24,4.24,0,0,0,.24-.49,1.1,1.1,0,0,0,.06-.33,1.23,1.23,0,0,0-.12-.4c-.07-.17-.2-.21-.38-.13l-2.21,1a5.43,5.43,0,0,0-1.27.71c-.12.09-.14.3-.08.66a4.11,4.11,0,0,0,.18.75s-.06.1-.24.17a1,1,0,0,1-.28.09c-.43-1.18-.72-1.93-.87-2.27s-.27-.59-.43-.94-.31-.61-.41-.82l-.16-.3s.11-.1.26-.17.25-.09.27-.06a3.07,3.07,0,0,0,.36.56c.19.24.33.36.45.36a7.08,7.08,0,0,0,1.46-.53L243,86.78a7.21,7.21,0,0,0,1.24-.65c.07-.07.09-.26.06-.58a2.13,2.13,0,0,0-.13-.66s.05-.1.21-.17a.54.54,0,0,1,.31-.06c.45,1.13.74,1.83.86,2.11s.29.65.49,1.08S246.41,88.65,246.54,89Zm-.89.09a2.79,2.79,0,0,0-.51-.87c-.1-.09-.67.09-1.71.53l-1.8.78a.48.48,0,0,0-.34.46,2.07,2.07,0,0,0,.21.79l.18.4a1.45,1.45,0,0,0,1,.81,2.36,2.36,0,0,0,1.63-.16C245.73,91.18,246.17,90.27,245.65,89.06Z"/><path class="cls-2" d="M247.82,100.22a2.67,2.67,0,0,1,2.38.41,3.72,3.72,0,0,1,1.55,2.07,7,7,0,0,1,.19.81c0,.24.06.58.08,1s0,.74,0,.91a15.25,15.25,0,0,1-2.46,1,.18.18,0,0,1-.21-.15c-.09-.29-.09-.47,0-.52a3,3,0,0,0,1.26-1.15,2,2,0,0,0,.28-1.69,1.58,1.58,0,0,0-.78-1,1.69,1.69,0,0,0-1.26-.06,1.86,1.86,0,0,0-.45.2,1.15,1.15,0,0,0-.37.36l-.27.38a2.46,2.46,0,0,0-.23.52c-.08.24-.13.41-.17.5s-.09.28-.17.58-.12.49-.13.55-.1.3-.19.65-.15.61-.2.75-.13.36-.26.65a2.42,2.42,0,0,1-.41.67,3.25,3.25,0,0,1-.57.48,2.82,2.82,0,0,1-.82.39,2.79,2.79,0,0,1-2.48-.4,4,4,0,0,1-1.59-2.2,16.35,16.35,0,0,1-.44-3.15c.36-.21.83-.45,1.4-.71s.95-.42,1.13-.48.16.06.21.23.09.45,0,.51a3.73,3.73,0,0,0-.58.43,4.56,4.56,0,0,0-.61.67,2.2,2.2,0,0,0-.43,1,2.32,2.32,0,0,0,.08,1.16,1.85,1.85,0,0,0,.84,1.14,1.82,1.82,0,0,0,1.52.1,1.56,1.56,0,0,0,.51-.27,1.87,1.87,0,0,0,.37-.38,2.87,2.87,0,0,0,.27-.53,4.58,4.58,0,0,0,.19-.55c0-.14.1-.35.16-.62s.11-.47.14-.59a1.59,1.59,0,0,0,.08-.22c.1-.37.18-.66.24-.86s.16-.45.29-.77a3.26,3.26,0,0,1,.43-.76,2.83,2.83,0,0,1,.58-.56A2.41,2.41,0,0,1,247.82,100.22Z"/></svg>