<svg id="Layer_1" data-name="Layer 1" xmlns="http://www.w3.org/2000/svg" viewBox="0 0 557.1 659.97"><defs><style>.cls-1{opacity:0.43;}</style></defs><path d="M19.19,662.05H13.8L34,609.34h6.14l20.1,52.71H54.75l-6.21-16.54H25.41Zm27.56-21.28L36.9,614.3l-9.71,26.47Z" transform="translate(-9.96 -7.95)"/><path d="M63.39,647h4.93a11.77,11.77,0,0,0,2.73,7.79,8.67,8.67,0,0,0,6.8,2.89A9.31,9.31,0,0,0,85,654.79,11.06,11.06,0,0,0,87.7,647q0-7.17-10.92-10.82l-1.29-.44q-5.71-2-8.23-5.05a12.2,12.2,0,0,1-2.51-8,14.27,14.27,0,0,1,3.87-10.32,13.31,13.31,0,0,1,10-4A12.11,12.11,0,0,1,87.92,612q3.42,3.66,3.82,10.28H86.92a11.07,11.07,0,0,0-2.54-6.64,7.4,7.4,0,0,0-5.75-2.33,8.34,8.34,0,0,0-6.3,2.55,9,9,0,0,0-2.44,6.5,8,8,0,0,0,.73,3.56A7.82,7.82,0,0,0,73,628.67a23.92,23.92,0,0,0,6.28,2.76c1.79.57,3.14,1.05,4.07,1.41a15.81,15.81,0,0,1,7.3,5.08,13.6,13.6,0,0,1,2.23,8.13q0,7.68-4.12,12.36a13.85,13.85,0,0,1-10.94,4.69,13.2,13.2,0,0,1-10.32-4.43Q63.5,654.23,63.39,647Z" transform="translate(-9.96 -7.95)"/><path d="M97.38,647h4.92a11.88,11.88,0,0,0,2.73,7.79,8.7,8.7,0,0,0,6.8,2.89,9.33,9.33,0,0,0,7.2-2.88,11.06,11.06,0,0,0,2.66-7.8q0-7.17-10.93-10.82l-1.28-.44q-5.72-2-8.23-5.05a12.15,12.15,0,0,1-2.52-8,14.23,14.23,0,0,1,3.88-10.32,13.31,13.31,0,0,1,10-4A12.09,12.09,0,0,1,121.9,612q3.43,3.66,3.82,10.28H120.9a11,11,0,0,0-2.53-6.64,7.42,7.42,0,0,0-5.75-2.33,8.34,8.34,0,0,0-6.3,2.55,9,9,0,0,0-2.45,6.5,8,8,0,0,0,.74,3.56,7.68,7.68,0,0,0,2.33,2.73,24,24,0,0,0,6.29,2.76c1.78.57,3.14,1.05,4.07,1.41a15.81,15.81,0,0,1,7.3,5.08,13.67,13.67,0,0,1,2.23,8.13q0,7.68-4.13,12.36a13.82,13.82,0,0,1-10.94,4.69,13.2,13.2,0,0,1-10.31-4.43Q97.48,654.23,97.38,647Z" transform="translate(-9.96 -7.95)"/><path d="M131.47,635.37a27,27,0,0,1,2.09-10.5,27.47,27.47,0,0,1,6.05-8.94,26.24,26.24,0,0,1,8.41-5.72,25.45,25.45,0,0,1,9.94-1.92,26.14,26.14,0,0,1,10.12,1.94,27.6,27.6,0,0,1,14.47,14.61,27.42,27.42,0,0,1,2,10.53,29.84,29.84,0,0,1-1.71,10.3,26.26,26.26,0,0,1-5.14,8.53,26.79,26.79,0,0,1-9,6.66,26.27,26.27,0,0,1-10.85,2.24,25,25,0,0,1-18.82-8A27.51,27.51,0,0,1,131.47,635.37Zm5.35.07A22.56,22.56,0,0,0,143,651.59a20.19,20.19,0,0,0,15.24,6.52,19.61,19.61,0,0,0,15-6.59,23,23,0,0,0,6.11-16.22A21.51,21.51,0,0,0,173,619.82a20.29,20.29,0,0,0-15.13-6.49,19.73,19.73,0,0,0-6.95,1.24,20.32,20.32,0,0,0-6.15,3.68A22.48,22.48,0,0,0,139,626,22.21,22.21,0,0,0,136.82,635.44Z" transform="translate(-9.96 -7.95)"/><path d="M233.1,623a23.26,23.26,0,0,0-7.81-7.24,20.6,20.6,0,0,0-9.86-2.32A19.7,19.7,0,0,0,200.6,620a21.8,21.8,0,0,0-6.16,15.49,22.65,22.65,0,0,0,6.13,16.11,19.58,19.58,0,0,0,14.86,6.56,20.68,20.68,0,0,0,9.75-2.28,21.67,21.67,0,0,0,7.57-6.81h6.07a26.37,26.37,0,0,1-9.57,10.41,26.82,26.82,0,0,1-32.58-4.26q-7.65-7.92-7.65-19.8a27,27,0,0,1,2.07-10.5,27.54,27.54,0,0,1,6.07-8.94,25.38,25.38,0,0,1,8.33-5.7,27.07,27.07,0,0,1,24,1.9A26.92,26.92,0,0,1,239.24,623Z" transform="translate(-9.96 -7.95)"/><path d="M251.67,662.05h-5.11V609.34h5.11Z" transform="translate(-9.96 -7.95)"/><path d="M260.09,662.05H254.7l20.17-52.71H281l20.1,52.71h-5.46l-6.21-16.54H266.31Zm27.56-21.28L277.8,614.3l-9.71,26.47Z" transform="translate(-9.96 -7.95)"/><path d="M313.5,662.05h-5.11V614.52H298v-5.18h25.88v5.18H313.5Z" transform="translate(-9.96 -7.95)"/><path d="M334.31,633h21.85v5.22H334.31V657h21.85v5.1h-27V609.34h27v5.18H334.31Z" transform="translate(-9.96 -7.95)"/><path d="M363.12,647h4.93a11.77,11.77,0,0,0,2.73,7.79,8.67,8.67,0,0,0,6.8,2.89,9.31,9.31,0,0,0,7.19-2.88,11,11,0,0,0,2.66-7.8q0-7.17-10.92-10.82l-1.29-.44q-5.72-2-8.23-5.05a12.2,12.2,0,0,1-2.51-8,14.27,14.27,0,0,1,3.87-10.32,13.32,13.32,0,0,1,10-4,12.1,12.1,0,0,1,9.28,3.65q3.42,3.66,3.82,10.28h-4.82a11.07,11.07,0,0,0-2.54-6.64,7.4,7.4,0,0,0-5.74-2.33,8.35,8.35,0,0,0-6.31,2.55,9,9,0,0,0-2.44,6.5,8,8,0,0,0,.73,3.56,7.82,7.82,0,0,0,2.34,2.73,23.92,23.92,0,0,0,6.28,2.76c1.79.57,3.14,1.05,4.07,1.41a15.81,15.81,0,0,1,7.3,5.08,13.6,13.6,0,0,1,2.23,8.13q0,7.68-4.12,12.36a13.85,13.85,0,0,1-10.94,4.69,13.2,13.2,0,0,1-10.32-4.43Q363.23,654.23,363.12,647Z" transform="translate(-9.96 -7.95)"/><path d="M401.29,667.92h-5.15l5.57-15.5h5.11Z" transform="translate(-9.96 -7.95)"/><path d="M443.55,662.05h-5.1V609.34h5.1Z" transform="translate(-9.96 -7.95)"/><path d="M487.75,655.75l-.61-46.41h5.07v52.71h-6.14l-28.52-46.48.57,46.48h-5V609.34h6.14Z" transform="translate(-9.96 -7.95)"/><path d="M543.44,623a23.28,23.28,0,0,0-7.82-7.24,20.56,20.56,0,0,0-9.85-2.32A19.71,19.71,0,0,0,510.93,620a21.8,21.8,0,0,0-6.15,15.49,22.69,22.69,0,0,0,6.12,16.11,19.6,19.6,0,0,0,14.87,6.56,20.67,20.67,0,0,0,9.74-2.28,21.58,21.58,0,0,0,7.57-6.81h6.07a26.37,26.37,0,0,1-9.57,10.41A26.8,26.8,0,0,1,507,655.17q-7.67-7.92-7.66-19.8a27,27,0,0,1,2.07-10.5,27.54,27.54,0,0,1,6.07-8.94,25.32,25.32,0,0,1,8.34-5.7,25.63,25.63,0,0,1,10-1.94,25.93,25.93,0,0,1,13.94,3.84,26.94,26.94,0,0,1,9.8,10.86Z" transform="translate(-9.96 -7.95)"/><path d="M563.72,662.05h-5.11v-9.63h5.11Z" transform="translate(-9.96 -7.95)"/><path d="M96.5,77.16H91.88v92.22a6.6,6.6,0,0,0,1.66.47,17.79,17.79,0,0,0,2,.09q5.16,0,7.76-3t2.58-8.87v-70q0-5.17-2.49-8A8.7,8.7,0,0,0,96.5,77.16Z" transform="translate(-9.96 -7.95)"/><path d="M96.5,205.79H91.88V319.64a4.52,4.52,0,0,0,1.57.46,20.38,20.38,0,0,0,2.13.09c3.44,0,6-1,7.76-3s2.58-4.92,2.58-8.87V216.88q0-5.35-2.49-8.22A8.7,8.7,0,0,0,96.5,205.79Z" transform="translate(-9.96 -7.95)"/><path d="M10,8V562.86H182.79V8ZM147.88,139.26q0,19.41-4.16,29.48a34.53,34.53,0,0,1-14.32,16.35q10.15,5.73,14.32,14.6t4.16,29.94v62.1q0,39.18-9.89,49.9T96.5,352.35H49.93V45h56.36q22.18,0,31.88,11t9.71,35.58Z" transform="translate(-9.96 -7.95)"/><path d="M202.09,8V562.86H374.92V8ZM338.71,352.4H303.6L275.87,188.84h-2.95l2.22,163.56h-36.6V44.68h35.12l27,150.26h3L302.12,44.68h36.59Z" transform="translate(-9.96 -7.95)"/><path d="M478.22,77.18h-3V206.73h3c4.44,0,7.39-.86,8.87-2.59s2.22-6.15,2.22-13.3V93.07q0-10.9-2.22-13.4C485.61,78,482.66,77.18,478.22,77.18Z" transform="translate(-9.96 -7.95)"/><path d="M394.22,8V562.51H567.05V8Zm137,169.21q0,41-8.5,51.38t-33.82,10.35H475.26V352.37H433.31V45h55.63q25.32,0,33.82,10.35t8.5,51.38Z" transform="translate(-9.96 -7.95)"/></svg>