<?xml version="1.0" encoding="utf-8"?>
<!-- Generator: Adobe Illustrator 25.2.0, SVG Export Plug-In . SVG Version: 6.00 Build 0)  -->
<svg version="1.1" id="Layer_1" focusable="false" xmlns="http://www.w3.org/2000/svg" xmlns:xlink="http://www.w3.org/1999/xlink"
	 x="0px" y="0px" width="448px" height="448px" viewBox="0 0 448 448" style="enable-background:new 0 0 448 448;"
	 xml:space="preserve">
<style type="text/css">
	.st0{display:none;fill:#F2F2F2;}
	.st1{fill:#F2F2F2;}
</style>
<path class="st0" d="M100.3,448H7.4V148.9h92.9V448z M53.8,108.1C24.1,108.1,0,83.5,0,53.8S24.1,0,53.8,0s53.8,24.1,53.8,53.8
	S83.5,108.1,53.8,108.1z M447.9,448h-92.7V302.4c0-34.7-0.7-79.2-48.3-79.2c-48.3,0-55.7,37.7-55.7,76.7V448h-92.8V148.9h89.1v40.8
	h1.3c12.4-23.5,42.7-48.3,87.9-48.3c94,0,111.3,61.9,111.3,142.3V448H447.9z"/>
<path class="st1" d="M443.8,121.7c-2,42.8-31.8,101.5-89.8,175.9c-59.8,77.8-110.4,116.7-151.8,116.7c-25.6,0-47.3-23.7-65.1-71
	C102.5,216.3,87.8,142,59.2,142c-3.3,0-14.8,7-34.6,20.7L4,136c50.7-44.5,99.1-94,129.4-96.7c34.3-3.3,55.3,20.1,63.2,70.2
	c28.2,178.3,40.7,205.2,91.9,124.4c18.4-29.1,28.3-51.2,29.7-66.4c4.7-45.1-35.2-42-62.2-30.4c21.6-70.8,63-105.2,123.9-103.2
	C425,35,446.3,64.4,443.8,121.7L443.8,121.7z"/>
</svg>
