<?xml version="1.0" encoding="utf-8"?>
<!-- Generator: Adobe Illustrator 24.1.3, SVG Export Plug-In . SVG Version: 6.00 Build 0)  -->
<svg version="1.1" id="Layer_1" xmlns="http://www.w3.org/2000/svg" xmlns:xlink="http://www.w3.org/1999/xlink" x="0px" y="0px"
	 width="27.3px" height="44px" viewBox="0 0 27.3 44" style="enable-background:new 0 0 27.3 44;" xml:space="preserve">
<style type="text/css">
	.st0{fill:#EA4335;}
	.st1{fill:#960A0A;}
	.st2{fill:#FFFFFF;}
</style>
<path class="st0" d="M13.6,0.5C6.4,0.5,0.5,6.4,0.5,13.6l0,0c0,9.9,11.1,15.1,12.4,29.2c0,0.4,0.4,0.7,0.8,0.7
	c0.4,0,0.7-0.3,0.8-0.7c1.3-14.1,12.3-19.3,12.3-29.2C26.8,6.4,20.9,0.5,13.6,0.5z"/>
<circle class="st1" cx="13.6" cy="13.6" r="4.6"/>
<path class="st2" d="M13.6,0.8c7.2,0,13,5.8,13.1,12.9v-0.1c0-7.3-5.9-13.2-13.1-13.2S0.5,6.4,0.5,13.6v0.1
	C0.6,6.6,6.4,0.8,13.6,0.8z"/>
<path class="st2" d="M14.4,42.5c0,0.4-0.4,0.7-0.8,0.7c-0.4,0-0.7-0.3-0.8-0.7c-1.3-14-12.3-19.2-12.4-29c0,0.1,0,0.1,0,0.2
	c0,9.9,11,15.1,12.3,29.2c0,0.4,0.4,0.7,0.8,0.7c0.4,0,0.7-0.3,0.8-0.7c1.3-14.1,12.4-19.3,12.4-29.2v-0.2
	C26.6,23.2,15.7,28.4,14.4,42.5z"/>
</svg>
